<?xml version="1.0" encoding="UTF-8"?>
<svg id="project_select" xmlns="http://www.w3.org/2000/svg" viewBox="0 0 1270.51 1352.53">
  <g>
    <path d="M112.33,456.14c-51.68-151.91,171.56-305.95,345.31-302.77" style="fill: none; stroke: #fff; stroke-miterlimit: 10; stroke-width: 28.35px;"/>
    <polygon points="459.26 67.57 432.86 237.72 531.11 165.84 459.26 67.57" style="fill: #fff; stroke-width: 0px;"/>
  </g>
  <g>
    <path d="M1180.28,674.72c82.32,137.73-103.74,335.08-274.3,368.33" style="fill: none; stroke: #fff; stroke-miterlimit: 10; stroke-width: 28.35px;"/>
    <polygon points="922.35 1127.28 912.56 955.38 831.52 1046.22 922.35 1127.28" style="fill: #fff; stroke-width: 0px;"/>
  </g>
  <g>
    <path d="M877.69,721.87c-9.59,1.1-18.72-1.73-27.99-3.25-3.05-.5-3.51-.04-2.93,2.93,6.69,34.33,13.25,68.68,19.91,103.01.57,2.92.47,5.74-.32,8.53-10.29,36.05-20.61,72.09-30.92,108.14-.88,3.06-1.81,6.12-2.54,9.22-2.72,11.49-9.32,20.76-16.27,30.03-47.05,62.78-93.92,125.7-140.82,188.59-2.24,3-5.07,5.03-8.23,7.06-14.41,9.26-30.95,10.43-47.11,13.08-66.37,10.87-132.74,21.7-199.12,32.56-13.56,2.22-27.1,4.5-40.66,6.72-3.34.55-6.58.26-9.92-.59-25.83-6.62-51.62-13.43-77.59-19.45-14.24-3.3-25.3-11.56-36.51-20.06-32.68-24.78-65.46-49.43-98.23-74.1-14.02-10.56-28.06-21.08-42.14-31.55-2.26-1.68-3.69-3.81-5.09-6.2-9.68-16.47-13.89-34.95-19.4-52.92-6.04-19.69-12.49-39.27-17.64-59.22-7.98-30.92-16.01-61.83-23.95-92.76-5.68-22.11-11.19-44.26-16.88-66.36-6.64-25.82-13.09-51.7-20.23-77.39-2.49-8.98.75-16.47,3.91-23.98,12.58-29.87,25.56-59.57,38.37-89.34,1.28-2.98,3.05-5.57,5.34-7.87,47.66-47.98,95.31-95.96,142.93-143.98,8.02-8.09,18.36-12.5,28.61-15.98,56.67-19.28,113.58-37.88,170.4-56.73,4.3-1.43,8.54-1.91,13.15-1.54,40.14,3.19,80.3,6.08,120.43,9.25,3.85.3,3.75-1.27,3.35-4.01-2.31-15.65-4.79-31.29-6.75-46.99-1.75-14-1.44-27.67,3.4-41.5,17.63-50.35,34.49-100.98,51.58-151.52,1.1-3.25,2.73-6.05,4.94-8.66,16.75-19.74,33.43-39.55,50.2-59.28,2.89-3.4,6.15-6.5,9.2-9.76,2.08-2.23,4.8-3.02,7.65-3.62,34.84-7.39,69.68-14.79,104.52-22.19,35.46-7.53,70.86-15.41,106.42-22.44,23.18-4.58,46.54-8.38,69.95-11.61,11.27-1.55,22.33-.94,33.38,4.78,45.66,23.63,91.8,46.36,137.76,69.42,5.44,2.73,9.25,7.37,13.11,11.8,14.92,17.1,29.62,34.38,44.43,51.58,2.01,2.34,3.41,4.93,4.32,7.91,22.19,72.06,44.66,144.04,66.38,216.24,2.86,9.5,2.63,19.98-2.36,29.8-30.85,60.66-61.49,121.42-92.08,182.21-3.28,6.52-8.55,11.14-13.68,15.86-24.22,22.3-48.61,44.4-72.9,66.62-2.44,2.23-5.18,3.58-8.33,4.46-53.23,14.78-106.46,29.6-159.67,44.45-4.43,1.24-8.91.33-13.34.63Z" style="fill: #000; stroke-width: 0px;"/>
    <path d="M476.05,1025.01c-1.73.41-2.18-1.65-2.94-3.12-8.24-15.87-16.43-31.76-24.65-47.63-14.32-27.65-28.64-55.29-42.97-82.93-9.33-18-18.5-36.09-28.11-53.94-2.28-4.24-1.67-6.35,1.96-9.26,35.68-28.54,71.21-57.26,106.78-85.94,39.41-31.78,78.81-63.58,118.23-95.36,4.27-3.44,4.26-3.38,6.83,1.51,13.18,25.16,26.42,50.29,39.56,75.48,9.45,18.12,18.53,36.44,28.19,54.44,17.66,32.91,34.8,66.1,52.02,99.24,3.75,7.22,7.41,14.5,11.27,21.66,1.2,2.23,1.26,3.95-.18,6.14-19.52,29.8-38.98,59.63-58.38,89.51-1.51,2.33-3.53,2.96-5.98,3.28-34.2,4.5-68.41,9.01-102.61,13.55-32.29,4.28-64.58,8.6-96.88,12.91-.47.06-.94.2-2.15.45Z" style="fill: #949494; stroke-width: 0px;"/>
    <path d="M380.62,468.49c.64.44,1.56,1.04,2.44,1.7,32.24,24.31,64.49,48.61,96.7,72.96,24.44,18.47,48.83,37.02,73.26,55.51,14.5,10.98,29.04,21.92,43.53,32.91,4.37,3.31,4.36,3.39.18,6.77-26.1,21.08-52.21,42.14-78.33,63.2-44.88,36.2-89.76,72.39-134.65,108.58-4.97,4.01-10.02,7.94-14.94,12.02-1.69,1.4-3.09,1.47-5.17.65-32.79-12.87-65.63-25.63-98.45-38.41-2.22-.87-4.17-1.61-4.95-4.5-9.23-34.55-18.61-69.06-27.95-103.58-6.51-24.04-12.93-48.11-19.59-72.11-2.88-10.39-3.02-10.19,5.57-16.52,49.35-36.4,98.64-72.86,147.96-109.3,3.85-2.85,7.72-5.67,11.58-8.5.75-.55,1.33-1.42,2.8-1.37Z" style="fill: #bababa; stroke-width: 0px;"/>
    <path d="M464.91,1029.56c-.46,1.7-1.95,2.53-3.05,3.62-24.5,24.32-49.04,48.61-73.56,72.91-13.29,13.17-26.62,26.28-39.79,39.56-2.28,2.3-3.68,2.39-6.28.43-20.92-15.74-41.96-31.3-62.97-46.92-28.56-21.23-57.11-42.47-85.67-63.7-23.82-17.71-47.65-35.42-71.48-53.13-1.53-1.14-3.1-2.22-4.61-3.38q-6.2-4.78-1.4-10.65c46.35-56.83,92.73-113.64,138.96-170.56,2.52-3.1,4.6-3.5,8.07-2.13,32.78,12.92,65.59,25.75,98.43,38.5,1.99.77,3.16,1.88,4.07,3.67,7.4,14.51,14.79,29.02,22.29,43.48,14.84,28.62,29.62,57.28,44.68,85.79,10.67,20.19,21.1,40.5,31.37,60.9.28.56.62,1.09.94,1.64Z" style="fill: #c3c3c3; stroke-width: 0px;"/>
    <path d="M1040.35,553.67c-23.63,0-47.27.25-70.9-.06-33.69-.45-67.37-1.3-101.05-2-14.69-.31-29.37-.83-44.06-.89-4.17-.02-4.26-1.44-3.51-4.79,7.56-33.84,15.01-67.7,22.47-101.56,9.86-44.78,19.77-89.54,29.44-134.36.97-4.48,2.6-5.81,7.17-5.71,40.56.84,81.12,1.4,121.68,2.09,16.6.28,33.2.79,49.81.98,3.33.04,5.05.8,6.2,4.23,10.39,30.9,21,61.72,31.54,92.57,7.39,21.62,14.68,43.28,22.22,64.85,1.07,3.07.73,5.34-.85,8.02-14.53,24.64-28.99,49.32-43.35,74.06-1.7,2.93-3.58,4.34-7.15,4.17-6.53-.32-13.09-.09-19.64-.09,0-.5,0-1,0-1.5Z" style="fill: #948083; stroke-width: 0px;"/>
    <path d="M609.23,410.72c2.82-15.96,5.52-31.22,8.22-46.48,5.33-30.21,10.72-60.4,15.88-90.64.54-3.14,1.83-4.17,4.72-4.74,51.06-10.14,102.11-20.36,153.14-30.63,2.64-.53,4.48.03,6.45,1.84,21.43,19.63,42.9,39.23,64.49,58.69,2.25,2.03,2.73,3.7,2.09,6.55-9.89,44.45-19.66,88.92-29.45,133.38-7.63,34.64-15.23,69.29-22.88,103.92-1.12,5.06-1.22,5.05-5.94,2.71-18.17-9.02-36.4-17.91-54.47-27.12-9.43-4.81-17.24-12.08-25.69-18.35-32.04-23.79-63.91-47.8-95.84-71.73-6.14-4.6-12.26-9.21-18.42-13.77-1.49-1.1-2.89-2.15-2.3-3.63Z" style="fill: #c17bb1; stroke-width: 0px;"/>
    <path d="M1045.35,298.32c-40.06-.62-80.13-1.21-120.19-1.86-16.44-.27-32.87-.73-49.3-.97-2.43-.04-4.13-.8-5.91-2.43-21.57-19.69-43.2-39.33-64.9-58.88-2.27-2.04-2.64-3.7-1.37-6.5,25.65-56.55,51.22-113.14,76.71-169.77,1.58-3.52,2.81-4.12,6.5-2.22,42.03,21.59,84.18,42.95,126.29,64.37,27.74,14.11,55.47,28.25,83.26,42.27,3.14,1.58,3.84,3.02,2.65,6.59-13.65,40.9-27.07,81.87-40.56,122.82q-2.21,6.72-9.35,6.72h-3.83c0-.05,0-.1,0-.15Z" style="fill: #a2b5ff; stroke-width: 0px;"/>
    <path d="M43.17,721.64c.37-1.02.75-2.23,1.25-3.39,12.11-28.12,24.28-56.22,36.3-84.38,1.11-2.61,2.53-3.97,5.3-4.71,36.22-9.71,72.43-19.48,108.58-29.43,3.78-1.04,5.19-.53,6.22,3.43,5.37,20.7,11.02,41.33,16.63,61.97,6.28,23.1,12.65,46.18,18.91,69.29,4.38,16.18,8.54,32.41,13.01,48.56.64,2.31-.18,3.51-1.44,5.05-17.86,21.88-35.66,43.8-53.51,65.69-28.43,34.87-56.89,69.72-85.34,104.58-1.09,1.33-1.94,2.89-3.63,3.62-.5-1.51-1.1-2.99-1.5-4.53-5.99-23.17-11.94-46.36-17.93-69.53-8.91-34.47-17.86-68.92-26.77-103.39-5.19-20.08-10.34-40.17-15.51-60.25-.2-.77-.35-1.56-.57-2.57Z" style="fill: #cacaca; stroke-width: 0px;"/>
    <path d="M834.76,823.01c.58,2.98-.7,3.94-1.97,4.98-25.93,21.27-51.87,42.53-77.73,63.89-2.47,2.04-3.4,1.64-4.86-1.06-12.02-22.19-23.4-44.71-35.04-67.1-14.57-28.05-29.51-55.91-44.16-83.92-11.17-21.38-22.1-42.89-33.2-64.3-6.03-11.63-12.1-23.23-18.37-34.73-1.73-3.17-1.26-4.79,1.76-6.82,30.1-20.19,60.09-40.53,90.11-60.84,8.86-5.99,17.82-11.85,26.5-18.09,3.2-2.3,4.57-1.6,6.75,1.33,16.63,22.46,33.4,44.81,50.27,67.09,3.53,4.67,3.58,10.2,4.61,15.43,6.85,34.6,13.48,69.24,20.1,103.88,5.06,26.47,10.01,52.97,15.02,79.46.12.63.31,1.24.2.81Z" style="fill: #5b5b5b; stroke-width: 0px;"/>
    <path d="M381.46,1196.8c-1.54.29-2.64-.77-3.57-2.19-7.49-11.5-14.94-23.04-22.53-34.48-1.71-2.58-.98-4.11,1.01-6.08,24.09-23.84,48.08-47.79,72.14-71.66,13.84-13.73,27.92-27.22,41.59-41.11,3.4-3.45,7.1-4.99,11.64-5.59,30.68-4.06,61.35-8.21,92.03-12.3,33.36-4.45,66.73-8.84,100.08-13.33,2.95-.4,3.96-.08,3.2,3.34-5.74,25.86-11.3,51.77-16.91,77.66-4.12,19.02-8.32,38.03-12.29,57.09-.78,3.77-2.27,5.64-6.3,6.27-32.62,5.11-65.22,10.38-97.81,15.7-33.68,5.5-67.33,11.14-101,16.69-19.99,3.3-40,6.54-60,9.8-.32.05-.63.09-1.3.19Z" style="fill: #585858; stroke-width: 0px;"/>
    <path d="M418.83,420.32c37.27,2.84,73.27,5.58,109.26,8.32,17.52,1.34,35.04,2.71,52.56,4,2.15.16,3.87.82,5.64,2.15,44.64,33.58,89.33,67.08,134.02,100.59,3.06,2.3,6.04,4.77,9.33,6.69,3.98,2.33,2.44,3.56-.35,5.42-13.8,9.22-27.51,18.58-41.25,27.89-24.44,16.55-48.92,33.06-73.3,49.71-2.86,1.95-4.68,2.31-7.77-.05-28.15-21.52-56.49-42.78-84.75-64.14-24.44-18.48-48.85-37-73.28-55.48-19.1-14.44-38.19-28.88-57.34-43.25-2.52-1.89-3.43-3.32-1.39-6.5,5.95-9.28,11.7-18.7,17-28.37,2.98-5.44,6-9.44,11.62-6.98Z" style="fill: #939393; stroke-width: 0px;"/>
    <path d="M613.96,161.3c-.24-1.49,1-2.41,1.91-3.48,16.39-19.39,32.82-38.75,49.16-58.18,1.77-2.11,3.77-3.08,6.41-3.64,50.28-10.63,100.55-21.35,150.82-32.05,14.99-3.19,29.98-6.36,44.97-9.53,1.23-.26,2.83-1.17,3.61-.22.73.88-.42,2.3-.93,3.43-16.38,36.22-32.75,72.44-49.13,108.66-8.55,18.91-17.18,37.78-25.59,56.74-1.61,3.63-3.57,5.62-7.75,6.44-50.13,9.84-100.21,19.88-150.28,30.01-2.71.55-3.65.09-4.18-2.58-6.13-31.19-12.35-62.36-18.55-93.53-.12-.63-.28-1.24-.47-2.07Z" style="fill: #cb98df; stroke-width: 0px;"/>
    <path d="M1065.08,303.34c.3-1.1.55-2.19.89-3.24,14.19-43.1,28.4-86.2,42.54-129.32.82-2.5,1.76-3.48,4.69-3.1,10.44,1.36,20.93,2.48,31.42,3.36,3.81.32,5.43,2.04,6.5,5.54,8.31,27.36,16.78,54.67,25.22,82,12.53,40.61,25.08,81.21,37.62,121.81.47,1.53.73,3.14,1.37,4.59,1.16,2.65.38,4.24-1.88,6.04-20.63,16.42-41.14,32.99-61.68,49.51-9.59,7.71-19.22,15.36-28.74,23.15-2.05,1.68-2.9,1.68-3.81-1.02-13.02-38.44-26.12-76.84-39.21-115.26-4.53-13.31-9.09-26.61-13.62-39.92-.46-1.36-.86-2.73-1.29-4.15Z" style="fill: #6584b1; stroke-width: 0px;"/>
    <path d="M836.12,560.82c18.51,0,37.03-.21,55.53.05,31.44.43,62.87,1.14,94.3,1.76,14.52.29,29.04.62,43.56.96,9.57.22,19.14.56,28.71.7,2.54.04,3.3.57,2.66,3.3-6.33,27.05-12.55,54.13-18.71,81.22-.6,2.66-1.8,4-4.49,4.74-52.15,14.43-104.29,28.94-156.4,43.5-2.55.71-4.92.74-7.51.23-9.55-1.87-19.13-3.66-28.74-5.18-3.3-.52-4.39-2.06-4.96-5.18-3.6-19.62-6.8-39.35-11.38-58.74-2.41-10.19-8.3-19.31-13.85-28.28-1.07-1.72-1.76-3.22-1.46-5.31,1.49-10.27,3.01-20.54,4.18-30.85.37-3.23,1.38-4.41,4.68-4.22,4.61.27,9.26.07,13.89.07,0,.41,0,.82,0,1.23Z" style="fill: #aa9f00; stroke-width: 0px;"/>
    <path d="M394.69,425.53c-.32.56-.69,1.26-1.1,1.95-5.48,9.19-10.96,18.38-16.44,27.57-1.08,1.82-2.62,3.11-4.32,4.37-56.26,41.53-112.49,83.11-168.72,124.69-1.94,1.44-4.01,2.53-6.38,3.17-31.91,8.57-63.8,17.2-95.72,25.76-1.12.3-2.79,1.48-3.37.35-.5-.98,1.33-1.95,2.2-2.83,23.19-23.36,46.41-46.69,69.61-70.04,19.7-19.83,39.37-39.7,59.05-59.55,1.8-1.82,3.65-3.34,6.24-4.2,51.51-16.99,102.98-34.08,154.46-51.15,1.06-.35,2.11-.77,3.19-1.03.53-.13,1.33-.27,1.29.94Z" style="fill: #9c9c9c; stroke-width: 0px;"/>
    <path d="M663.37,1129.81c2.27-10.53,4.51-21.12,6.84-31.7,6.64-30.19,13.33-60.37,19.94-90.57.42-1.93,1.18-3.59,2.25-5.21,18.38-28.03,37.13-55.83,54.89-84.25,6.13-9.81,14.28-16.95,22.89-24.01,15.4-12.63,30.82-25.23,46.22-37.86,3.94-3.23,7.84-6.52,11.76-9.79.71-.59,1.44-1.75,2.37-1.15.96.62.1,1.76-.14,2.62-5.71,20.09-11.47,40.16-17.17,60.25-3.31,11.66-6.65,23.31-9.76,35.03-1.11,4.21-3.75,7.37-6.2,10.67-17.79,23.92-35.62,47.82-53.5,71.67-10.42,13.9-21.04,27.66-31.44,41.58-15.07,20.18-30.01,40.44-45.01,60.67-.76,1.02-1.55,2.03-2.37,3.01-.38.45-1.07,1.24-1.29,1.14-1.01-.45-.05-1.33-.26-2.09Z" style="fill: #2d2d2d; stroke-width: 0px;"/>
    <path d="M114.46,991.16c1.01.76,1.77,1.34,2.53,1.91,14.74,10.93,29.47,21.87,44.21,32.8,31.4,23.27,62.83,46.5,94.21,69.8,28.44,21.12,56.83,42.31,85.23,63.49.88.66,1.83,1.36,2.42,2.26,6.35,9.76,12.64,19.56,18.94,29.36.51.79,1.42,1.69.86,2.57-.6.94-1.73.3-2.62.07-21.8-5.54-43.62-11-65.39-16.67-4.91-1.28-8.24-5.37-12.16-8.31-42.38-31.81-84.67-63.74-127-95.61-6.63-4.99-13.3-9.91-19.98-14.84-1.43-1.06-2.75-2.09-3.31-3.93-6.08-20.01-12.2-40.01-18.3-60.02-.28-.93-.74-2,.35-2.87Z" style="fill: #787878; stroke-width: 0px;"/>
    <path d="M1206.61,410.25c-.39.81-.79,1.67-1.22,2.53-23.51,46.69-47.01,93.38-70.54,140.06-2.59,5.14-5.87,9.99-7.89,15.33-4.61,12.17-13.59,20.5-23.14,28.61-8.15,6.92-15.85,14.36-23.74,21.58-7.89,7.22-15.75,14.46-23.65,21.67-.64.58-1.23,1.78-2.26,1.04-.36-.26-.18-1.5-.01-2.24,5.71-24.88,11.24-49.79,17.3-74.58,1.79-7.31,6.94-13.25,10.7-19.72,12.66-21.82,25.55-43.51,38.18-65.35,1.8-3.11,4.6-4.87,7.15-6.92,25.44-20.54,50.97-40.96,76.49-61.4.72-.58,1.56-1.01,2.35-1.51.09.27.18.55.29.91Z" style="fill: #3c3e1a; stroke-width: 0px;"/>
    <path d="M555.76,330.63c.51-4.02,2.3-7.99,3.68-12.05,13.57-40.12,27.19-80.21,40.81-120.31,1.75-5.14,3.5-10.29,5.31-15.41.45-1.27.3-2.92,1.91-3.59.38,1.21.88,2.4,1.13,3.63,2.56,12.69,5.08,25.39,7.62,38.08,2.32,11.6,4.33,23.27,7.08,34.76,1.77,7.39,1.18,14.47-.13,21.76-7.41,41.38-14.76,82.77-21.9,124.19-.68,3.93-1.82,4.46-5.14,2.97-8.51-3.83-17.7-3.92-26.77-4.43-2.69-.15-3.95-.98-4.34-3.78-2.94-21.21-6-42.41-9.02-63.61-.09-.63-.14-1.27-.25-2.23Z" style="fill: #b4479e; stroke-width: 0px;"/>
    <path d="M1139.09,161.25c-10.25-1.13-19.8-1.95-29.27-3.34-4.75-.7-8.7-3.85-12.95-6-50.83-25.77-101.63-51.61-152.42-77.46-15.22-7.75-30.39-15.58-45.58-23.39-.9-.46-2.42-.48-2.24-1.86.05-.39,1.67-.67,2.6-.82,16.69-2.78,33.4-5.48,50.08-8.36,2.29-.4,4.02.31,5.88,1.25,35.38,17.78,70.77,35.55,106.16,53.31,12.56,6.3,25.13,12.58,37.69,18.87,1.42.71,2.83,1.35,3.93,2.63,12.15,14.19,24.34,28.34,36.5,42.52.58.67,1.65,1.39,1.04,2.38-.25.41-1.42.26-1.44.27Z" style="fill: #7ea5f7; stroke-width: 0px;"/>
    <path d="M771.7,539.59c11.58,5.61,23.15,11.25,34.76,16.82,1.82.88,2.51,1.87,2.16,4.07-1.2,7.55-2.11,15.15-3.15,22.73-.1.75-.13,1.94-.56,2.14-1.14.54-1.6-.73-2.12-1.42-6.7-8.92-13.39-17.85-20.03-26.81-4.07-5.48-8.07-11.01-12.1-16.51-.18-.87.08-1.3,1.04-1.01Z" style="fill: #bd6d11; stroke-width: 0px;"/>
    <path d="M771.7,539.59c-.35.34-.69.67-1.04,1.01-.95-.57-2.35-1.8-1.79-2.31,1.02-.93,2.17.16,2.83,1.3Z" style="fill: #774710; stroke-width: 0px;"/>
  </g>
</svg>