<?xml version="1.0" encoding="UTF-8"?><svg id="project_new" xmlns="http://www.w3.org/2000/svg" viewBox="0 0 1270.51 1333.2"><path d="M141.15,1324.14c.04-.31.05-.62.03-.94h36.98c.08.29.09.58.05.88-12.35.02-24.7.04-37.06.06Z" style="fill:#b5b5b5; stroke-width:0px;"/><path d="M641.61,1249.17h-2c-12.33-.84-24.65-.84-36.98,0h-4c-42.52-5.91-84.45-15.14-126.76-22.26-8.67-1.46-16.56-4.5-24.37-8.45-39.38-19.89-79.04-39.24-118.29-59.38-40.29-20.68-80.95-40.62-121.37-61.04-10.87-5.49-19.44-13.66-25.63-23.87-28.15-46.41-55.68-93.19-83.52-139.78-13.83-23.15-27.37-46.49-41.52-69.44-5.3-8.59-8.24-17.57-9.58-27.49-5.61-41.4-11.7-82.74-17.6-124.1-5.74-40.21-11.47-80.41-17.22-120.62-.54-3.77-.94-7.59-.79-11.44-.75-13.52-.83-27.04,0-40.54.27-8.35,4.07-15.75,6.74-23.4,5.7-16.35,11.22-32.77,16.75-49.17,15.86-47.01,31.88-93.97,47.85-140.94,8.73-25.69,17.26-51.45,26.17-77.09,3.01-8.66,8.71-15.23,14.44-21.93,29.63-34.68,58.89-69.67,88.48-104.38,3.14-3.68,6.6-7.05,10.15-10.32,3.5-3.23,7.62-5.24,12.31-6.24,61.2-13.15,122.46-26.04,183.68-39.11,61.22-13.07,122.41-26.3,183.71-38.94,29.34-6.05,59.08-10.1,88.64-15.01,14.26-2.37,28.45-5.42,42.99-5.81,11.26,0,22.51,0,33.74,0,4.4-.09,8.47,1,12.44,3.01,83.77,42.45,167.74,84.52,251.78,126.43,4.37,2.18,8.15,5.06,11.7,8.41,13.46,12.74,25.07,27.13,37.13,41.12,18.37,21.31,36.62,42.72,55.02,64,3.12,3.6,5.22,7.69,6.61,12.2,19.42,63.01,38.92,125.99,58.38,188.98,18.43,59.66,36.86,119.31,55.34,178.95,1.53,4.93,2.18,10.01,3.23,15.02v38.98c-.83,4.78-2.84,9.1-4.98,13.43-20.93,42.21-42.45,84.13-63.77,126.15-16.95,33.4-33.29,67.12-50.6,100.34-14.54,27.91-28.63,56.05-42.39,84.34-7.56,15.54-18.76,27.68-31.28,39.03-12.94,11.73-25.95,23.39-38.83,35.19-17.67,16.18-35.36,32.33-53.14,48.39-11.85,10.71-23.43,21.72-35.45,32.23-3.46,3.02-7.27,5.12-11.72,6.35-80.23,22.19-160.39,44.64-240.61,66.86-12.51,3.46-24.89,7.38-37.59,10.14-2.41.52-4.94.34-7.28,1.24Z" style="fill:#000; stroke-width:0px;"/><path d="M10.98,541.58c.65-.67,1.3-1.34,1.95-2.02-1.08,14.34-.84,28.68-.04,43.03-.63-1.34-1.27-2.69-1.9-4.03,0-12.33,0-24.65,0-36.98Z" style="fill:#afafaf; stroke-width:0px;"/><path d="M602.63,1249.17c12.33-1.66,24.65-1.63,36.98,0h-36.98Z" style="fill:#121212; stroke-width:0px;"/><path d="M937.15,954.16c-42.4,0-84.8.23-127.2-.08-29.42-.21-58.83-1.19-88.25-1.77-40.39-.8-80.79-1.51-121.18-2.34-25.42-.52-50.84-1.29-76.26-1.7-4.1-.07-5.07-.93-4.15-5.08,21.73-98.12,43.34-196.26,64.98-294.39,9.44-42.82,18.97-85.63,28.27-128.49.76-3.49,1.99-4.58,5.5-4.52,40.41.71,80.82,1.24,121.23,1.91,15.95.26,31.9.84,47.85,1.11,39.57.67,79.15,1.24,118.73,1.89,2.64.04,5.27.65,7.92.68,20.06.21,19.99.21,26.39,18.98,30.31,88.78,60.63,177.56,91.08,266.29,1.45,4.21.97,7.41-1.23,11.14-26.05,44.1-52.23,88.13-77.68,132.57-4.4,7.68-10.12,5.56-15.99,6.04,0-.75,0-1.49,0-2.24Z" style="fill:#948083; stroke-width:0px;"/><path d="M598.1,511.7c-4.78,21.67-9.4,42.59-14.01,63.51-25.89,117.4-51.79,234.8-77.64,352.22-3.47,15.76-3.34,15.82-17.72,8.65-58.85-29.32-117.67-58.7-176.53-87.98-56.48-28.1-112.97-56.17-169.55-84.06-3.85-1.9-4.35-3.88-3.68-7.68,14.42-81.19,28.72-162.4,43.04-243.6,3.11-17.65,6.34-35.27,9.17-52.97.66-4.12,2.69-5.31,6.32-6.04,81.92-16.27,163.83-32.62,245.74-48.96,9.12-1.82,18.28-3.49,27.35-5.54,3.14-.71,5.32-.03,7.61,2.05,39.08,35.56,78.22,71.06,117.3,106.62,1.26,1.14,3.21,2.16,2.6,3.78Z" style="fill:#c17bb1; stroke-width:0px;"/><path d="M916.97,503.58c-38.23,0-76.46.12-114.69-.05-18.28-.08-36.56-.76-54.83-1.08-37.4-.65-74.79-1.24-112.19-1.89-1.31-.02-2.71-.79-3.91-.51-19.36,4.59-29.88-9.12-41.83-20-31.94-29.06-63.86-58.15-95.97-87.02-4.43-3.98-5.47-6.96-2.79-12.82,26.62-57.98,52.84-116.14,79.16-174.25,19.26-42.52,38.54-85.03,57.64-127.62,1.85-4.13,3.72-1.9,5.72-.88,46.41,23.57,92.81,47.18,139.22,70.76,65.09,33.07,130.2,66.12,195.3,99.18,13.05,6.63,26.05,13.35,39.17,19.82,3.94,1.95,5.35,3.63,3.7,8.56-24.86,74.42-49.49,148.92-73.91,223.48-1.65,5.03-3.62,6.95-8.82,6.21-3.59-.51-7.31-.1-10.98-.1,0-.61,0-1.22,0-1.83Z" style="fill:#a2b5ff; stroke-width:0px;"/><path d="M156.77,264.1c.28-3.92,3.72-6.01,5.96-8.68,28.43-33.79,57-67.45,85.53-101.15,1.53-1.81,3.19-3.12,5.69-3.65,111.35-23.55,222.69-47.18,334.03-70.8,5.52-1.17,11.01-2.44,16.53-3.59,1.58-.33,3.2-.44,4.8-.65-.45,1.52-.74,3.12-1.38,4.56-16.4,36.34-32.82,72.67-49.28,108.99-26.61,58.71-53.25,117.41-79.86,176.12-2.12,4.68-4.23,9.37-6.25,14.1-.86,2.02-2.13,2.92-4.4,3.37-90.77,18.05-181.53,36.17-272.25,54.45-4.09.83-4.68-.6-5.33-3.91-10.99-55.53-22.09-111.03-33.17-166.54-.16-.81-.37-1.61-.61-2.63Z" style="fill:#cb98df; stroke-width:0px;"/><path d="M620.18,1207.03c-26.22-4.81-51.87-9.52-77.51-14.22-17.14-3.14-34.28-6.37-51.45-9.35-3.48-.61-4.5-1.45-3.96-5.41,6.89-50.11,13.52-100.26,20.19-150.4,2.6-19.56,5.22-39.13,7.69-58.71.44-3.53,1.54-4.96,5.49-4.89,37.09.7,74.18,1.09,111.27,1.71,28.59.48,57.18,1.21,85.77,1.79,31.42.63,62.84,1.18,94.26,1.85,26.25.56,52.5,1.23,78.76,1.85,16.45.39,32.91.9,49.36,1.07,4.31.04,3.46,2.14,2.87,4.72-9.71,42.1-20.75,83.96-28.47,126.43-3.56,19.58-12.83,26.32-30.83,31.1-86.76,23.04-173.11,47.64-259.61,71.68-1.43.4-2.9.6-3.81.79Z" style="fill:#aa9f00; stroke-width:0px;"/><path d="M1031.84,275.39c20.95,2.34,42.36,4.79,63.79,7.08,3.68.39,3.86,3.23,4.6,5.63,13.05,42.08,26.05,84.17,39.05,126.27,19.19,62.1,38.36,124.2,57.55,186.31,6.09,19.7,12.16,39.39,18.33,59.07.91,2.9.36,4.64-2.18,6.67-53.98,43.17-107.87,86.44-161.71,129.78-2.92,2.35-4.12,2.78-5.55-1.41-31.2-91.81-62.42-183.62-93.99-275.31-2.8-8.14,1.07-14.4,3.23-21.01,22.83-69.72,46.02-139.31,69.1-208.94,1.26-3.79,2.37-7.62,3.55-11.43.57-1.85,1.23-3.59,4.21-2.69Z" style="fill:#6584b1; stroke-width:0px;"/><path d="M499.42,963.68c-4.99,37.21-10.02,74.7-15.05,112.19-4.23,31.58-8.53,63.14-12.59,94.74-.57,4.45-.95,6.2-6.01,3.64-79.01-40-158.1-79.82-237.2-119.62-2.35-1.18-4.03-2.77-5.35-4.98-41.77-70.19-83.54-140.39-125.44-210.51-1.91-3.19-1.88-5.44.11-8.49,10.64-16.3,21.16-32.68,31.52-49.16,1.96-3.11,3.52-3.35,6.73-1.75,68.63,34.34,137.3,68.59,205.99,102.79,51.11,25.44,102.29,50.77,153.42,76.18,1.92.96,4.85,1.29,3.87,4.98Z" style="fill:#be6d11; stroke-width:0px;"/><path d="M54.38,560.94c1.68-5.2,3.58-11.38,5.66-17.5,27.64-81.44,55.31-162.88,83.03-244.29.48-1.4.06-3.59,2.14-3.87.31-.04,1.14,2.46,1.42,3.85,9.75,48.37,19.83,96.67,28.91,145.16,2.37,12.63-2.91,25.25-5.08,37.77-12.31,71.14-24.97,142.23-37.5,213.33-3.77,21.42-7.11,42.92-11.44,64.22-1.98,9.75-9.73,16.86-14.68,25.28-4.3,7.31-9.09,14.33-13.72,21.44-.77,1.19-1.84,2.18-2.77,3.27-.39-1.39-.95-2.76-1.15-4.18-5.21-36.62-10.36-73.25-15.58-109.87-6.2-43.51-12.46-87.02-18.69-130.53-.14-.98-.27-1.97-.56-4.09Z" style="fill:#b4479e; stroke-width:0px;"/><path d="M1199.95,700.21c-.45.87-.92,1.74-1.37,2.63-25.08,49.8-50.1,99.62-75.24,149.39-24.88,49.27-49.84,98.5-74.86,147.7-4.51,8.87-13.24,13.88-20.16,20.46-16.24,15.45-33.18,30.16-49.78,45.24-15.49,14.07-30.91,28.21-46.38,42.31-.59.54-1.31.93-1.97,1.39.06-.9-.02-1.83.18-2.7,6.08-26.52,12.19-53.04,18.27-79.56,4.3-18.75,7.61-37.81,13.21-56.16,3.03-9.9,9.81-18.69,15.15-27.83,22.96-39.33,46.04-78.59,69.02-117.9,6.98-11.94,19.14-18.19,29.29-26.53,31.42-25.83,63.28-51.1,94.98-76.59,8.8-7.07,17.6-14.14,26.43-21.17.86-.69,1.97-1.08,2.96-1.61.08.29.17.59.26.93Z" style="fill:#3c3e1a; stroke-width:0px;"/><path d="M750.78,50.95c.76.3,2.32.8,3.77,1.52,86.15,43.15,172.36,86.17,258.31,129.72,8.98,4.55,13.8,14.6,20.46,22.16,16.57,18.81,32.69,38.03,48.97,57.09.72.84,1.29,1.82,1.93,2.73-1.08.14-2.19.49-3.25.37-17.78-1.96-35.6-3.64-53.29-6.21-4.69-.68-9.01-4.03-13.44-6.27-68.4-34.69-136.81-69.37-205.19-104.13-50.87-25.86-101.68-51.82-152.51-77.76-1.3-.66-3.66-1.92-3.56-2.23.67-1.96,2.73-1.13,4.22-1.39,30.39-5.19,60.8-10.31,91.2-15.44.49-.08,1-.07,2.39-.17Z" style="fill:#7ea5f7; stroke-width:0px;"/><g id="Layer_11"><path d="M343.87,629.06c0-83.48,0-166.96.01-250.44,0-9.86-.93-8.5,8.3-8.51,166.96-.03,333.92-.02,500.87-.02.96,0,1.92-.02,2.88,0q5.36.11,5.47,5.6c.02,1.2,0,2.4,0,3.6,0,166.48,0,332.95-.02,499.43,0,10.83,1.25,9.22-9.01,9.22-166.48.03-332.96.03-499.43,0-10.29,0-9.05,1.62-9.05-9.17-.03-83.24-.02-166.48-.02-249.72Z" style="fill:#000; stroke-width:0px;"/><path d="M393.74,629.06c0-67.39,0-134.78,0-202.17,0-7.96-.75-6.87,6.7-6.87,134.78-.02,269.56-.01,404.34-.01.77,0,1.55-.01,2.32,0q4.33.09,4.42,4.52c.02.97,0,1.94,0,2.9,0,134.39,0,268.79-.01,403.18,0,8.74,1.01,7.44-7.27,7.44-134.39.03-268.79.03-403.18,0-8.31,0-7.31,1.31-7.31-7.41-.03-67.2-.02-134.39-.02-201.59Z" style="fill:#ece8ef; stroke-width:0px;"/><path d="M572.56,525.41c0-22.42-.02-44.85.01-67.27,0-5.23.09-5.29,5.74-5.29,16.37-.03,32.74-.03,49.11,0,5.67,0,5.72.06,5.72,5.92.02,37.22,0,74.45,0,111.67,0,7.62-.03,15.25,0,22.87.02,5.73.06,5.78,5.94,5.78,34.53.02,69.06,0,103.6,0,10.54,0,21.08.15,31.62-.08,3.64-.08,4.5,1.23,4.47,4.62-.14,16.82-.04,33.63-.07,50.45-.01,5.59-.08,5.63-6.11,5.63-43.5.01-87,0-130.5,0q-8.95,0-8.95,8.8c0,42.83,0,85.66,0,128.49,0,1.57-.09,3.15.01,4.71.18,2.54-.77,3.57-3.45,3.56-17.94-.08-35.88-.08-53.82-.01-2.74,0-3.51-1.27-3.36-3.71.09-1.56.02-3.14.02-4.71,0-43.05,0-86.11,0-129.16,0-1.57-.08-3.14.01-4.71.13-2.19-.58-3.4-3-3.26-1.79.1-3.59,0-5.38,0-42.83,0-85.66,0-128.49,0-1.35,0-2.69.02-4.04,0-5.02-.1-5.1-.11-5.11-5.28-.04-16.14-.04-32.29,0-48.43.02-7.7-.8-6.9,6.73-6.9,43.28-.02,86.55.02,129.83-.03,10.76-.01,9.4,1.45,9.43-9.09.06-21.53.02-43.05.02-64.58Z" style="fill:#000; stroke:#000; stroke-miterlimit:10;"/></g></svg>