<?xml version="1.0" encoding="UTF-8"?>
<svg id="add_dfenv" xmlns="http://www.w3.org/2000/svg" viewBox="0 0 1270.51 1352.53">
  <path d="M1214.74,142.73c0-5.77-.09-11.11.04-16.44.06-2.17-.57-3.79-2.14-5.29-3.26-3.1-6.45-6.28-9.55-9.54-2.21-2.33-4.8-3.28-7.98-3.4-4.13-.15-8.24-.6-12.36-.98-6.75-.62-13.5-1.28-20.24-1.92-6.59-.62-13.17-1.26-19.76-1.87-6.58-.61-13.17-1.19-19.76-1.8-9.38-.87-18.76-1.76-28.14-2.63-6.26-.58-12.52-1.18-18.79-1.71-6.43-.55-12.88-.97-19.31-1.55-7.24-.65-14.46-1.45-21.7-2.11-6.1-.56-12.25-.72-18.3-1.56-9.51-1.33-19.1-1.66-28.63-2.77-6.57-.76-13.17-1.26-19.76-1.87-6.58-.61-13.17-1.25-19.76-1.81-6.27-.53-12.59-.68-18.81-1.55-6.56-.92-13.17-1.22-19.74-1.96-7.06-.79-14.14-1.34-21.22-1.99-6.59-.6-13.18-1.21-19.77-1.78-6.11-.52-12.22-.92-18.32-1.5-6.91-.65-13.8-1.48-20.7-2.14-9.38-.91-18.77-1.74-28.15-2.59-6.76-.61-13.51-1.2-20.27-1.78-6.1-.52-12.21-.98-18.31-1.54-7.07-.66-14.14-1.42-21.21-2.1-9.21-.89-18.43-1.77-27.65-2.62-6.59-.61-13.18-1.18-19.77-1.75-6.27-.54-12.54-1.01-18.8-1.59-6.91-.64-13.81-1.41-20.72-2.06-9.06-.84-18.12-1.6-27.18-2.42-6.92-.63-13.83-1.32-20.74-1.94-6.1-.55-12.21-.99-18.31-1.55-7.07-.66-14.14-1.42-21.21-2.1-9.21-.89-18.43-1.77-27.65-2.62-6.59-.61-13.19-1.16-19.78-1.74-6.27-.55-12.53-1.06-18.8-1.64-6.91-.64-13.81-1.38-20.71-2.01-6.26-.57-12.56-.83-18.79-1.63-6.74-.87-13.49-1.59-20.26-1.81-9.32-.3-18.66-.06-27.99-.09-1.86,0-3.54.32-5.27,1.14-5.55,2.63-11.21,5.04-16.82,7.55-14.86,6.64-29.72,13.29-44.57,19.95-14.86,6.66-29.71,13.33-44.57,19.98-15.01,6.71-30.03,13.39-45.03,20.1-14.86,6.65-29.71,13.33-44.57,19.98-14.86,6.64-29.74,13.23-44.6,19.88-15.02,6.72-30,13.51-45.02,20.22-14.7,6.57-29.44,13.06-44.15,19.61-13.2,5.88-26.33,11.94-39.61,17.63-9.39,4.02-18.5,8.28-24.89,16.69-.1.13-.22.25-.35.35-2.36,1.94-3.24,4.37-3.14,7.47.43,12.8.05,25.6.6,38.42.71,16.6.76,33.23,1.51,49.84.37,8.13-.09,16.26.65,24.41.77,8.41,0,16.9.82,25.38.78,8.08,0,16.26.67,24.42.66,8.1-.04,16.27.69,24.43.74,8.25-.07,16.57.78,24.89.84,8.24.41,16.59.71,24.89.6,16.61.64,33.25,1.52,49.86.41,7.79-.02,15.58.67,23.41.8,9.08.12,18.27.82,27.42.56,7.29.34,14.63.55,21.94.49,17.11.75,34.21,1.7,51.31.43,7.8.29,15.63.53,23.44.51,16.78.63,33.56,1.61,50.33.46,7.96.33,15.94.62,23.91.62,16.94.66,33.91,1.53,50.85.39,7.62,0,15.25.66,22.91.8,9.25.55,18.6.73,27.91.27,13.47,1.25,26.94.8,40.43-.01.33-.04.67.01,1,1.79,10.37.12,20.89,1.42,31.33.95,7.72.37,15.61.63,23.42.55,16.77.64,33.55,1.6,50.31.46,7.95.33,15.93.62,23.9.62,16.94.62,33.9,1.52,50.84.41,7.79-.51,15.61.77,23.4.69,4.21-1.32,9.01.9,12.7,2.17,3.61,5.91,6.26,8.97,9.33.7.71,1.51,1.34,2.1,2.14,1.41,1.88,3.39,2.46,5.58,2.82,23.97,3.97,47.92,7.99,71.89,11.96,22.48,3.72,44.97,7.35,67.45,11.11,27.04,4.52,54.05,9.19,81.09,13.69,19.39,3.23,38.82,6.23,58.22,9.44,23.13,3.83,46.24,7.79,69.36,11.68,16.62,2.79,33.25,5.55,49.88,8.31,27.23,4.53,54.47,9.06,81.7,13.57,19.25,3.18,38.52,6.28,57.76,9.49,22.97,3.83,45.92,7.76,68.88,11.6,19.39,3.24,38.8,6.4,58.19,9.63,22.8,3.8,45.6,7.65,68.4,11.47,16.78,2.82,33.55,5.65,50.33,8.45,6.84,1.14,13.65,2.74,20.53,3.21,8.29.56,16.66.06,24.99.17,2.7.04,4.63-.86,6.56-2.78,9.83-9.71,19.31-19.75,29.45-29.16,14.28-13.25,27.44-27.65,41.7-40.94,14.12-13.17,27.19-27.42,41.33-40.61,14.49-13.51,27.9-28.14,42.4-41.66,14.12-13.17,27.31-27.31,41.31-40.63,19.18-18.25,37.79-37.11,56.61-55.73,7.46-7.38,14.57-15.15,22.36-22.18,9.4-8.49,18.01-17.77,27.13-26.52.97-.93,1.92-1.89,1.85-3.38-.15-3.18.76-6.28.77-9.42.08-17.96.43-35.92,1.38-53.86.45-8.62.32-17.27.63-25.9.66-18.44.86-36.91,1.55-55.36.31-8.14-.08-16.26.64-24.43.83-9.41,0-18.92.84-28.41.74-8.43.37-16.94.62-25.42.54-17.94.56-35.89,1.6-53.82.51-8.79-.1-17.59.66-26.42.78-9.09-.01-18.28.68-27.43.64-8.44-.05-16.92.69-25.42.79-9.08-.02-18.24.8-27.39.81-9.09,0-18.27.75-27.42.7-8.43-.03-16.94.64-25.43.7-8.93-.07-17.92.75-26.91.82-9.08-.03-18.25.79-27.4.79-8.75.39-17.6.65-26.41.53-17.78.57-35.57,1.58-53.34.51-8.95-.08-17.92.69-26.91.75-8.76-.02-17.61.66-26.43.68-8.77-.09-17.6.7-26.43.79-8.91-.07-17.9.81-26.88.86-8.91,0-17.93.73-26.92.73-8.93-.02-17.95.66-26.94.65-8.61.48-17.28.66-25.91.29-14.13,1.34-28.26,1.01-41.96ZM398.23,113.41c.34,4.09.85,7.5.87,10.91.14,21.16.18,42.32.25,63.48,0,1.15-.19,2.35.6,3.37-.04.33-.11.66-.1.99.16,4.55.12,3.72-4,4.68-8.26,1.93-16.58,3.54-24.88,5.3-13.18,2.79-26.35,5.58-39.52,8.37-2.46.52-4.9,1.16-6.78,2.94-7.96,7.55-15.52,15.48-21.89,24.46h0c-.45.95-1.11.76-1.81.31-10.35-1.11-20.7-2.17-31.04-3.33-10.5-1.17-20.99-2.49-31.5-3.64-7.56-.82-15.17-1.26-22.71-2.23-10.48-1.35-21.05-1.92-31.5-3.53-5.39-.83-10.91-.82-16.32-1.57-3.69-.51-7.55-.22-12.21-2.01,81.26-36.35,161.59-72.28,242.53-108.48ZM133.98,996.01c-7.09,5.55-14.82,10.15-22.02,15.54-6.28,4.69-12.72,9.31-19.42,13.47-.24.15-.63.05-1.4.08-.25-5.38-.59-10.83-.63-16.17-.09-12.15-.73-24.28-.9-36.42-.14-10.63-.23-21.3-.86-31.9-.48-8.15-.23-16.27-.64-24.39-.83-16.44-.9-32.9-1.51-49.34-.31-8.3-.15-16.61-.65-24.89-.99-16.43-1.01-32.88-1.55-49.31-.27-8.14.14-16.33-.65-24.41-.84-8.49-.3-16.95-.75-25.41-.86-16.11-.94-32.25-1.49-48.36-.29-8.48.13-17-.7-25.41-.83-8.32-.28-16.62-.72-24.91-.85-16.28-.88-32.58-1.49-48.86-.32-8.47-.16-16.96-.66-25.41-.95-16.1-1.04-32.23-1.54-48.34-.27-8.65.12-17.34-.69-25.92-.74-7.83-.28-15.62-.7-23.41-.92-16.94-.93-33.91-1.53-50.85-.26-7.48-.16-14.96-.58-22.43-.98-17.43-1.15-34.87-1.66-52.31-.2-6.98.02-13.98-.55-20.93-.8-9.63-.07-19.32-.89-28.89-.67-7.82-.29-15.57-.63-23.45,5.08-.86,9.74.5,14.43.9,10.53.9,21.03,2.2,31.55,3.35,10.35,1.13,20.69,2.31,31.05,3.41,7.89.84,15.8,1.55,23.69,2.38,7.72.81,15.44,1.68,23.16,2.53,7.88.86,15.77,1.71,23.65,2.59,10.67,1.18,21.34,2.41,32.02,3.56,1.98.21,3.99.16,5.99.24.55,1.34-.34,2.13-1.1,3.02-3.13,3.68-6.19,7.42-9.37,11.05-2.56,2.92-4.43,6.15-5.68,9.86-23.99,70.75-48.03,141.49-72.1,212.21-1.52,4.47-2.11,8.96-2.33,13.68-.78,16.61,1.95,32.86,4.3,49.17,3.55,24.71,7.05,49.44,10.59,74.15,3.82,26.7,7.64,53.39,11.47,80.08.78,5.44,1.77,10.85,2.34,16.31.43,4.1,1.84,7.69,3.93,11.18,21.26,35.59,42.48,71.2,63.71,106.81,3.16,5.29,6.26,10.61,9.48,15.86.95,1.54,1.49,2.9.05,4.38-7.16,4.99-14.37,9.93-21.37,15.1-6.76,5-13.98,9.32-20.51,14.66-4.3,3.52-9.27,6.2-13.69,9.57-5.11,3.89-10.54,7.35-15.79,11-6.78,4.71-13.37,9.71-20.3,14.22-7.76,5.05-15.15,10.66-22.69,16.03-4.95,3.52-9.76,7.23-15.03,10.29-2.41,1.4-4.47,3.37-6.63,5.06ZM844.73,1043.37c-.76,11.66-.5,23.29-.57,34.93-.16,27.14-.97,54.27-.86,81.42.03,6.93-.37,13.93-.59,21.22-5.13.16-9.86-1.26-14.63-2.03-30.16-4.89-60.31-9.88-90.45-14.88-32.08-5.32-64.16-10.69-96.24-16.03-26.22-4.36-52.43-8.71-78.65-13.08-21.82-3.64-43.63-7.3-65.45-10.94-32.1-5.35-64.19-10.68-96.29-16.01-32.27-5.36-64.54-10.69-96.81-16.05-21.82-3.62-43.64-7.27-65.46-10.9-26.22-4.37-52.44-8.72-78.65-13.12-5.03-.85-10.03-1.9-15.04-2.86-.62-.65-.6-1.3-.03-1.97,2.33-3.44,6.35-4.62,9.5-6.97,10.06-7.49,20.45-14.54,30.74-21.71,4.84-3.37,9.45-7.07,14.65-9.91,2.17-1.18,3.89-3.05,5.79-4.56,5-3.96,10.8-6.76,15.46-11.19,2.08-1.98,4.92-3.05,7.29-4.82,3.26-2.44,6.76-4.61,9.79-7.34,2.21-1.99,4.98-2.98,7.36-4.74,7.49-5.53,14.94-11.19,22.76-16.18,5.07-3.23,9.52-7.33,14.97-10.11,4.74-2.42,8.85-6.16,13-9.61,2.25-1.88,5.43-2.62,6.82-5.54.62-1.38,2.14-.39,3-1.14h0c1.6-.2,2.86.66,4.17,1.33,39.7,19.97,79.41,39.95,119.11,59.93,22.15,11.15,44.32,22.27,66.44,33.5,5.64,2.86,11.8,3.4,17.83,4.51,30.78,5.66,61.49,11.77,92.4,16.59,12.35,1.92,25.07,1.77,37.61-1.76,65.52-18.45,131.12-36.58,196.7-54.82,1.44-.4,2.91-.73,4.36-1.09.05,11.99.75,24.02-.02,35.96ZM789.51,163.75c-17.11-8.57-34.21-17.15-51.26-25.81-3.5-1.78-7.08-2.43-11-2.65-17.13-1-33.81,2.07-50.55,4.9-21,3.55-42.08,6.68-63,10.6-20.27,3.8-40.4,8.33-60.58,12.61-32.06,6.8-64.1,13.66-96.15,20.49-.48.1-.99.07-1.52.1-1.34-1.41-.72-3.15-.73-4.71-.06-13.99-.02-27.98-.07-41.97,0-1.8.45-3.67-.52-5.38.46-2.5-.19-4.97-.23-7.45-.11-7.66-.08-15.32-.02-22.99.02-3.02.51-3.43,3.57-3.01,10.16,1.4,20.42,1.73,30.57,2.97,11.97,1.47,24.03,1.97,35.99,3.53,9.18,1.19,18.51,1.15,27.69,2.32,9.02,1.15,18.11,1.37,27.11,2.73,6.04.91,12.19,1.04,18.28,1.56,9.22.79,18.44,1.62,27.66,2.45,7.24.65,14.48,1.19,21.7,2.03,9.35,1.08,18.77,1.49,28.11,2.75,6.39.86,12.88.94,19.31,1.49,6.09.51,12.16,1.19,18.24,1.76,7.24.68,14.5,1.16,21.71,2.01,9.35,1.1,18.77,1.45,28.11,2.78,6.21.88,12.54.93,18.81,1.47,6.41.55,12.81,1.28,19.22,1.88,6.91.65,13.82,1.19,20.73,1.86,6.41.62,12.81,1.37,19.22,1.99,6.09.58,12.19,1.09,18.28,1.57,7.41.58,14.81,1.23,22.2,2.12,6.08.73,12.21.98,18.31,1.51,6.58.57,13.16,1.22,19.74,1.82,7.07.65,14.16,1.18,21.22,1.94,9.36,1.02,18.77,1.48,28.12,2.75,6.06.82,12.2.97,18.3,1.49,6.58.56,13.16,1.22,19.74,1.82,7.07.65,14.16,1.13,21.2,1.96,6.4.76,12.84.96,19.23,1.92,6.2.93,12.52,1.04,18.79,1.6,6.91.61,13.83,1.15,20.7,2.06,2.52.33,5.24-.55,8.09.95-3.38,3.33-7.32,5.12-10.87,7.39-15.8,10.12-31.73,20.03-47.59,30.05-21.04,13.3-42.08,26.61-63.09,39.95-7.84,4.98-15.6,10.07-23.4,15.11-1.78.07-2.61-1.33-3.55-2.43-7.12-8.41-16.03-14.12-25.91-18.99-43.43-21.39-86.64-43.21-129.93-64.89ZM1090.2,958.94c-1.46,1.33-3,2.61-4.45,3.97-.12.11-.24.24-.35.35-25.32,25.07-50.41,50.37-76.04,75.12-13.41,12.96-26.22,26.52-39.87,39.21-14.03,13.05-26.96,27.19-40.98,40.21-9.39,8.71-18.13,18.08-27.49,26.77-1.67-.69-.92-2.05-.93-3.04-.07-7.83-.53-15.69.05-23.48,1.48-19.97-.13-39.96.86-59.9.95-19.15-.06-38.3.7-57.42.51-12.82.55-25.62.4-38.44,5.25-5.8,11.35-10.71,17.09-15.99,6.85-6.3,13.83-12.46,20.59-18.86,1.86-1.76,3.74-2.57,6.18-2.39,4.43,1.5,9.14,1.06,13.66,2.07,7.37,1.65,14.91,2.31,22.37,3.45,2.29.35,4.59.43,6.88.83,11.01,1.93,22.19,2.93,33.2,4.79,11.71,1.97,23.56,2.95,35.21,5.05,11.39,2.05,22.93,3.07,34.25,5.5,2.85.61,5.9.41,9.28,1.29-3.12,4.23-6.9,7.57-10.59,10.92ZM1155.61,243.16c-.22,8.61.03,17.28-.68,25.87-.77,9.31-.03,18.65-.72,27.92-.62,8.32.11,16.66-.63,24.92-.85,9.48.05,18.98-.82,28.38-.81,8.66-.04,17.29-.74,25.89-.74,9.15.02,18.31-.69,27.41-.66,8.49.1,17-.68,25.42-.88,9.47-.02,18.97-.85,28.37-.75,8.49-.04,16.97-.69,25.4-.7,9.15.03,18.32-.7,27.41-.7,8.66.14,17.33-.68,25.91-.9,9.47-.08,18.96-.85,28.37-.68,8.33-.04,16.64-.64,24.92-.68,9.31.05,18.66-.74,27.91-.73,8.66-.16,17.28-.64,25.9-1.04,18.25-1.06,36.53-1.59,54.79-.24,8.31.14,16.65-.62,24.91-.88,9.64-.05,19.3-.87,28.87-.68,7.99-.07,15.96-.66,23.9-.72,9.64,0,19.32-.74,28.91-.65,8.49-.1,16.96-.59,25.42-1.05,18.25-1.47,36.51-1.55,54.78-.01,3.11.35,7.09-1.34,9.07-1.78,2.09-5.57-.34-8.46-.72-15.08-1.95-30.09-4.49-45.18-6.34-13.08-1.61-26.09-3.68-39.13-5.54-10.26-1.47-20.63-2.36-30.77-4.33-8.27-1.6-16.64-2.31-24.89-3.88-1.45-.28-2.99-.13-4.48-.17,0-2.11,1.29-3.75,2.17-5.5,25.52-50.51,51.08-101.01,76.63-151.51,11.5-22.72,22.97-45.46,34.55-68.14,1.87-3.67,2.49-7.39,2.74-11.47.85-13.68-1.82-26.6-5.89-39.64-28.01-89.75-55.64-179.62-83.37-269.46-1.05-3.4-2.59-6.44-4.96-9.12-4.52-5.12-8.95-10.32-13.36-15.54-1.03-1.21-2.63-2.17-2.36-4.15,8.01-5.01,16.04-9.99,24.03-15.02,17.98-11.32,35.96-22.65,53.92-34.01,15.58-9.85,31.15-19.73,46.71-29.61,13.03-8.28,26.04-16.58,39.08-24.86.54-.34,1.2-.51,1.7-.72,1.37.66.92,1.78.94,2.7.47,15.48-.55,30.94-.95,46.4Z" style="fill: #000; stroke-width: 0px;"/>
  <line x1="72.69" y1="1075.67" x2="309.38" y2="910.63" style="fill: none; stroke: #fff; stroke-miterlimit: 10; stroke-width: 19.84px;"/>
  <line x1="1156.68" y1="925.03" x2="919.35" y2="891.59" style="fill: none; stroke: #fff; stroke-miterlimit: 10; stroke-width: 19.84px;"/>
  <line x1="426.89" y1="67.37" x2="426.89" y2="195.09" style="fill: none; stroke: #fff; stroke-miterlimit: 10; stroke-width: 19.84px;"/>
  <path d="M291.99,936.08c.18-.89,1.11-1.53.37-2.71-3.79-6-6.89-12.43-11.24-18.08-2.28-.82-2.9-3.07-3.95-4.85-2.26-3.83-4.75-7.47-7.72-10.8-1.67-6.62-5.88-11.94-9.27-17.62-20.78-34.75-41.11-69.76-62.4-104.2-5.06-8.18-6.62-16.93-7.87-26-4.13-29.86-8.52-59.68-12.73-89.53-4.72-33.48-9.91-66.89-14.13-100.44-1.95-15.52-.13-30.78,5.87-45.57,7.83-19.3,13.49-39.4,20.33-59.07,8.26-23.76,16.34-47.59,24.27-71.46,7.67-23.08,15.94-45.97,23.39-69.13,1.46-4.54,3.77-8.5,7.09-11.91,4.05-4.16,6.99-9.29,11.49-13.06,9-.68,17.75,1.43,26.6,2.39,3.13.34,6.24.6,9.38.66,1.98.04,4,.1,5.46,1.79,1.08,2.4-.83,3.67-2.03,5.15-5.56,6.85-11.38,13.48-17.18,20.12-2.64,3.02-3.52,6.14-2.69,10.09,6.48,30.95,12.35,62.03,18.77,92.99,1.79,8.64,3.56,17.28,5.14,25.96.72,3.98,2.43,4.86,6.13,4.04,16.58-3.66,33.27-6.76,49.91-10.13,26.75-5.42,53.54-10.7,80.31-16.03,22.53-4.49,45.01-9.17,67.58-13.42,3.28-.62,5.3-2.31,6.66-5.3,10.43-22.86,20.63-45.84,31.17-68.65,2.77-6,4.64-12.45,8.66-17.85,6.69-.2,13.46-1.14,19.79,2.08-8.81,4.18-10.1,13.47-13.57,20.97-10.34,22.36-20.38,44.86-30.54,67.3-1.81,4-1.4,6.49,2,9.45,16.69,14.53,32.77,29.74,49.17,44.6,11.71,10.61,23.77,20.85,35.05,31.94,1.86,1.83,4.11,2.79,6.73,2.85.5.01,1,.05,1.5.04,23.64-.65,47.25.81,70.87,1.24,28.12.51,56.26.04,84.36,1.03,16.65.58,33.28.25,49.9.83,6.47.23,12.92,1.01,19.42,1,4.09,0,5.61-1.48,5.56-5.57-.14-11.99-.07-23.98-.03-35.97,0-1.82-.13-3.7.88-5.35.65-1.07,1.46-1.25,2.25-.05.88,1.87.82,3.87.82,5.85.02,14.55.05,29.1-.01,43.65-.02,3.64-.23,7.28-2.02,10.6-3.75,2.76-8.02,1.71-12.06,1.31-4.16-.41-8.29-.72-12.46-.64-28.15.57-56.28-.69-84.4-1.33-24.31-.55-48.63.19-72.91-.83-15.15-.64-30.28-.8-45.43-.83-6.87-.01-7.24.34-8.68,6.89-14.13,64.43-28.38,128.82-42.55,193.24-8.26,37.57-16.45,75.17-25.02,112.67-.26,1.14-.43,2.3-.7,3.43-.78,3.26.54,4.74,3.81,4.66.33,0,.67.03,1,.02,18.16-.67,36.28.77,54.42,1.2,26.64.63,53.29.16,79.9,1.06,15.32.52,30.63.22,45.93.83,30.11,1.19,60.22,1.61,90.34,2.12,8.28.14,16.6.64,24.91.96,2.48,4.71,2.16,10.4-.77,13.96-3.37,1.37-6.94,1.15-10.35.66-6.14-.89-12.29-.84-18.45-.76-23.15.29-46.27-.94-69.4-1.33-14.3-.24-28.65.12-42.92-.8-23.14-1.49-46.29-.22-69.41-1-28.28-.95-56.55-1.94-84.84-1.89-8.39.02-8.02.07-9.18,8.55-2.77,20.29-5.45,40.6-8.21,60.89-3.88,28.54-7.56,57.11-11.48,85.65-.74,5.4-.4,5.93,5.09,6.93,29.82,5.42,59.61,11.02,89.46,16.32,3.23.57,6.28.11,9.36-.76,61.39-17.33,122.88-34.29,184.33-51.39,6.42-1.79,12.78-3.79,19.24-5.4,3.51-.87,5.46-2.72,6.23-6.22,2.08-9.43,4.27-18.84,6.58-28.22.45-1.81-.06-4.93,3.57-4.41.96,1.47,1.03,3.13,1.05,4.79.28,21.22.02,42.42-1.1,63.62-.03.66-.17,1.31-.33,1.95-.95,3.09-3.76,3.51-6.28,4.22-21.96,6.18-43.92,12.33-65.91,18.41-43,11.9-86.01,23.78-128.94,35.95-13.8,3.91-27.65,4.04-41.51,1.74-31.37-5.2-62.54-11.55-93.88-16.9-6.99-1.19-13.41-3.58-19.72-6.75-60.25-30.28-120.28-61.01-180.73-90.91-.9-.44-1.79-.89-2.63-1.42-5.2-4.31-9.81-9.22-14.46-14.11Z" style="fill: #2c2c2c; stroke-width: 0px;"/>
  <path d="M958.89,318.01c10.67-6.19,20.88-13.12,31.28-19.74,6.59,6.6,12.39,13.88,18.37,21.02,1.84,2.2,2.7,4.95,3.55,7.67,10.69,34.33,21.29,68.69,31.9,103.05,9.39,30.38,18.83,60.74,28.16,91.14,9.28,30.24,19.6,60.19,27.56,90.78,3.42,13.13,3.52,26.97-3.22,40.3-25.56,50.51-51.19,100.99-76.62,151.56-10.85,21.56-21.67,43.15-32.67,64.64-.84,1.63-1.58,3.32-3.19,4.38-2.3,5.22-5.96,9.76-7.8,15.15.8,1.69,3.04.31,3.73,1.97-3.79-.7-5.87.79-7.54,4.41-2.58,5.6-6.77,10.05-12.44,12.87-1.09.54-.77,1.23-.03,1.86.65,2.38-1.44,3.04-2.68,4.21-4.09,3.82-8.56,7.28-11.46,12.23-3.75,1.52-6.91,3.98-9.74,6.76-9.57,9.41-19.89,18-29.56,27.3-1.3,1.25-2.97,5.2-5.61,1-.89-5.45-.84-11-.32-16.39.95-9.89-.02-19.93,2.24-29.71,4.57-6.23,11.04-10.49,16.66-15.62,6.02-5.5,11.5-11.59,17.97-16.61,2.14-1.66,3.18-4.24,4.38-6.62,8.74-17.43,17.16-35.02,26.23-52.28,17.83-33.92,34.32-68.52,52.06-102.49,11.02-21.11,21.45-42.55,32.33-64.41-15.78,12.92-31.37,25.23-46.87,37.67-19.61,15.75-39.24,31.48-58.88,47.19-2.4,1.92-4.31,4.14-5.78,6.79-9.4,16.89-19.48,33.38-29.26,50.04-3.14,5.35-6.42,10.53-5.57,17.19.18,1.39.5,3.55-2.05,3.79-.05-18.61-.12-37.22-.12-55.83,0-1.76-.49-3.7,1.03-5.19,1.83,4.19,1.89,16.58.18,20.54,7.15-12.16,14.21-24.36,21.58-36.38,1.96-3.2,1.69-6.2.6-9.53-5.79-17.73-12.3-35.22-18.05-52.96-1.23-3.79-2.33-7.61-3.21-11.49-.03-7.97-.44-15.97.07-23.91.29-4.44.68-8.89.94-13.35,2.58.44,2.61,2.81,3.23,4.55,6.87,19.12,13.4,38.36,19.85,57.62,3.12,9.32,6.56,18.52,9.68,27.84,1.57,4.67,2.01,4.82,6.02,1.5,15.63-12.98,31.6-25.53,47.45-38.24,22.6-18.12,45.13-36.34,67.86-54.31,3.58-2.83,4.35-5.52,3-9.86-18.16-58.34-36.14-116.73-54.19-175.11-10.13-32.77-20.19-65.56-30.42-98.29-1.2-3.85-3.52-5.1-7.32-5.32-13.12-.76-26.08-3.16-39.19-4.18-.84-.07-1.6-.44-2.11-1.18,6.08-3.93,12.15-7.86,18.23-11.79,5.75.32,11.46,1.08,17.44,1.83-2.65-2.85-5.33-5.29-7.67-8.06Z" style="fill: #2c2c2c; stroke-width: 0px;"/>
  <path d="M887.81,898.05c-.95-5.93-.87-11.85.04-17.78-.81-2.8-.53-3.86,3.02-3.13,3.99.82,8.07,1.78,12.24,1.47.58.05,1.12.24,1.6.56.44.38.76.84.95,1.39-.42,6.3.51,12.7-1.41,18.9-5.69,1.97-11.05.11-16.45-1.41Z" style="fill: #010101; stroke-width: 0px;"/>
  <path d="M887.81,898.05c3.97.61,7.95,1.15,11.9,1.85,1.56.27,2.87-.06,4.16-.85,1.51,1.69,1.51,3.38,0,5.08-1.02-1.63-1.84-3-4.35-3.19-3.24-.25-6.55-.53-9.74-1.17-2.58-.52-2.81.52-2.81,2.47.02,6.93.05,13.86-.02,20.79-.02,1.73.66,3.69-1.11,5.06.03-8.71.04-17.43.09-26.14,0-1.58-.47-3.45,1.9-3.9Z" style="fill: #1c1c1b; stroke-width: 0px;"/>
  <path d="M903.75,879.17c-4.46.35-8.82-.61-13.12-1.44-2.82-.55-2.54.97-2.79,2.55-1.78-3.72-2.96-7.49-1.08-11.55.07.49.18.97.2,1.46.17,5.97.38,6.45,6.21,6.77,3.6.2,7.05,1.72,10.71,1.11.28.41.24.78-.13,1.12Z" style="fill: #1d1d1d; stroke-width: 0px;"/>
  <path d="M863.1,900.42c-.68-1.71.47-4.22-2.08-5.08-1.76-.59-3.84.2-6.24-1.28,3.29-1.26,5.88.67,8.41-.04,1.01,2.15.68,4.27-.08,6.4Z" style="fill: #1c1c1c; stroke-width: 0px;"/>
  <path d="M532.3,835.52c-2.2-.03-3.53-1.13-4.98-1.85-46.05-22.93-92.07-45.9-138.11-68.84-30.4-15.14-60.81-30.26-91.22-45.37-11.63-5.78-23.29-11.49-34.92-17.26-4.36-2.16-4.29-2.18-3.49-6.7,4.84-27.51,9.64-55.02,14.48-82.53,3.37-19.16,6.79-38.3,10.17-57.46,4.59-26.03,9.17-52.07,13.76-78.1,1.57-8.87.43-7.14,8.08-8.68,35.38-7.11,70.76-14.27,106.15-21.33,31.48-6.29,62.98-12.43,94.45-18.78,3.27-.66,5.6-.19,8.08,2.08,15.8,14.52,31.72,28.91,47.61,43.34,13.06,11.85,26.1,23.72,39.22,35.5,1.87,1.68,2.12,3.26,1.57,5.67-3.98,17.52-7.76,35.08-11.63,52.63-13.33,60.41-26.67,120.81-40,181.22-6.2,28.1-12.37,56.2-18.57,84.31-.14.64-.37,1.26-.64,2.17Z" style="fill: #c3adc2; stroke-width: 0px;"/>
  <path d="M589.99,269.12c-4.57-.96-9.2-1.17-13.85-1-.86.03-1.65-.11-2.22-.84,12.44-26.16,23.93-52.76,36.39-79.78-3.42.08-6.21.92-9,1.52-51.81,11.04-103.63,22.05-155.45,33.04-30.31,6.43-60.6,12.96-90.94,19.26-1.95.41-3.9.91-5.92.82-1.96-.04-3.91,0-5.76.81-3.56-.58-7.1-1.59-10.67-1.65-10.06-.17-19.91-1.98-29.81-3.4-.73-1.69.27-2.88,1.23-4.01,5.47-6.45,10.7-13.12,16.85-18.98,3.22-3.08,6.93-4.94,11.3-5.88,20.13-4.32,40.28-8.56,60.43-12.77,3.37-.7,5.86-2,7.37-5.08.77.51.95,1.29,1.03,2.14.14,1.57,1.09,1.82,2.44,1.56,3.06-.6,6.11-1.3,9.2-1.67,2.49-.3,3.31-1.53,3.43-3.9.21-4.12-.82-8.24.06-12.35,1.2,4.87.91,9.87,1.05,15.13,6.33-.83,12.21-2.48,18.19-3.65,2.13-.41,1.99-1.85,1.99-3.36,0-8.16.02-16.31,0-24.47-.02-8.49-.09-16.97-.14-25.46,1.52,1.32.9,3.1.9,4.69.07,14.14.07,28.28.08,42.42,0,1.65,0,3.3,0,5.16,1.12-.11,1.93-.1,2.7-.27,4.19-.95,9.44-.67,12.13-3.69,2.43-2.73.7-7.67.74-11.62.11-11.48.03-22.96.05-34.43,0-1.82-.24-3.66.33-5.45,2.96,1.2,2.13,3.89,2.15,6.03.12,12.83.04,25.66.07,38.49.01,5.78.42,6.11,6.02,4.9,48.2-10.46,96.4-20.93,144.74-30.67,32.98-6.64,66.3-11.63,99.59-16.56,7.87-1.17,15.97-.46,23.96-.14,3.22.13,6.11,1.56,8.94,3,63.24,32.24,126.8,63.84,190.24,95.68,7.9,3.96,13.08,11.19,19.06,17.4-10.4,6.46-20.92,12.73-30.85,19.93-.24.18-.64.15-.96.21-1.25-1.98-2.7-3.57-4.94-4.69-26.66-13.33-53.28-26.74-79.93-40.1-29.32-14.7-58.76-29.17-88.04-43.97-7.13-3.61-14.18-7.39-21.32-10.98-2.78-1.4-5.5-1.89-8.65-1.41-22.2,3.35-44.23,7.73-66.78,10.9,2.81,1.54,5.27,3.19,7.93,4.5,40.92,20.21,81.44,41.22,122.21,61.73,28.41,14.29,56.85,28.57,85,43.39,4.41,2.32,9.05,4.15,13.39,6.6-2.65,2.18-5.28,3.25-9.05,2.32-3.28-.81-6.85-1.12-10.31-1.24-4.31-.16-8.61-.21-12.83-1.23-1.22-.66-2.68-.74-3.85-1.53-13.35-5.65-26.1-12.52-38.94-19.22-1.62-.84-3.16-1.85-4.8-2.66-33.34-16.35-66.28-33.48-99.37-50.31-21.22-10.79-42.53-21.41-63.74-32.22-5.39-2.75-5.51-2.72-8.08,2.87-11.27,24.49-22.36,49.06-33.38,73.67-.42.93-.93,1.76-1.61,2.5Z" style="fill: #2c2c2c; stroke-width: 0px;"/>
  <path d="M850.8,520.31c0,16.31.68,32.66-.14,48.94-1.03,20.47.22,40.94-.81,61.36-.96,18.98.06,37.94-.7,56.89-.8,19.97.3,39.97-.64,59.9-.93,19.64.04,39.27-.75,58.88-.32,7.8-.76,15.6-.66,23.41.06,5.09.48,10.17.73,15.25-1.45,1.12-3.15.93-4.8.9-19.13-.31-38.26-.6-57.38-1.1-12.97-.34-25.94-.22-38.9-.77-17.12-.73-34.27-.44-51.38-1.05-21.46-.77-42.93-.44-64.38-1.19-15.63-.55-31.28-.33-46.89-1-11.81-.5-23.61-.25-35.4-.76-4.07-.18-4.23-.26-3.32-4.42,4.25-19.32,8.54-38.62,12.8-57.93,11.28-51.13,22.54-102.26,33.82-153.39,7.59-34.41,15.21-68.81,22.81-103.21.18-.81.35-1.63.5-2.44.36-1.96,1.5-2.68,3.5-2.64,5.49.09,10.99,0,16.49.04,4.66.03,9.32.09,13.98.23,28.11.85,56.24.69,84.35,1.37,16.47.4,32.94.22,49.39.9,17.13.71,34.27.45,51.39.97,5.44.17,10.96.11,16.4.87Z" style="fill: #a39d9d; stroke-width: 0px;"/>
  <path d="M569.01,325.96c10.52,1.1,21.05,2.16,31.57,3.33,12.48,1.38,24.95,2.91,37.43,4.29,9.7,1.07,19.42,1.99,29.12,3.02,10.69,1.14,21.37,2.36,32.06,3.48,7.9.82,15.81,1.5,23.71,2.31,7.57.77,15.12,1.63,22.69,2.44,8.39.9,16.78,1.74,25.16,2.67,10.18,1.14,20.35,2.4,30.54,3.51,7.73.84,15.48,1.48,23.22,2.31,8.38.9,16.73,2.12,25.13,2.76,3.13.24,3.36,1.55,3.34,4.03-.1,9.16.3,18.34-.1,27.48-.97,22.13-.66,44.27-.74,66.41,0,1.66-.19,3.32-.29,4.98-1.09,1.68-.58,3.57-.59,5.36-.04,13.16,0,26.33-.03,39.49,0,4.03-.08,4.13-4.21,4.09-21.47-.21-42.94-.69-64.4-1.02-15.13-.23-30.27-.6-45.41-.83-26.46-.4-52.92-.96-79.38-1.44-13.47-.24-26.95-.32-40.43-.67-2.49-.06-4.32-.72-6.2-2.44-18.67-17.06-37.44-34-56.18-50.99-10.36-9.39-20.68-18.81-31.04-28.2-1.96-1.78-3-3.22-1.59-6.29,13.27-28.87,26.39-57.81,39.28-86.85,1.76-3.96,4.5-3.12,7.36-3.24Z" style="fill: #c0c7e3; stroke-width: 0px;"/>
  <path d="M846.97,865.07c-.17,23.3.02,46.6-1.15,69.88-2.89,9.18-4.55,18.67-6.84,28-.67,2.74-1.55,5.46-1.9,8.24-.32,2.49-1.74,3.3-3.83,3.88-15.87,4.33-31.74,8.69-47.59,13.1-21.62,6-43.22,12.08-64.84,18.08-26.42,7.34-52.86,14.63-79.28,21.97-6.09,1.69-12.17,3.41-18.22,5.22-1.82.54-3.52.53-5.38.18-22.85-4.23-45.72-8.37-68.57-12.56-8.65-1.59-17.3-3.22-25.94-4.87-3.17-.61-3.11-.65-2.65-4.12,1.79-13.66,3.47-27.34,5.31-40.99,1.82-13.48,4.11-26.91,5.57-40.43,1.56-14.37,4.08-28.59,5.56-42.97,1.07-10.39,3.13-20.67,4.07-31.1.4-4.5.73-4.58,5.31-4.57,12.16.02,24.36-.44,36.48.29,14.98.9,29.97.09,44.9.92,21.96,1.22,43.95.13,65.89,1.19,15.48.74,30.97.12,46.4.96,14.81.81,29.63.1,44.4.93,15.31.86,30.62.32,45.9,1,5.46.24,10.95.38,16.41.75,0,0,.01.03.01.03.69,2.33.71,4.67-.01,7Z" style="fill: #8f8b4f; stroke-width: 0px;"/>
  <path d="M507.33,1010.79c-4.83-2.48-9.69-5.01-14.59-7.47-20.1-10.07-40.23-20.08-60.32-30.18-34.95-17.59-69.87-35.26-104.83-52.83-2.33-1.17-4.09-2.67-5.42-4.9-17.94-30.2-35.92-60.37-53.9-90.55-12.87-21.6-25.75-43.18-38.62-64.77-.34-.57-.6-1.21-1.02-1.71-1.87-2.27-1.57-4.38.01-6.75,4.25-6.37,8.33-12.85,12.46-19.3,3.6-5.61,7.18-11.22,10.76-16.83,2.11-3.31,2.12-3.37,5.79-1.54,21.9,10.93,43.79,21.89,65.7,32.82,30.69,15.31,61.37,30.63,92.08,45.88,36.53,18.15,73.09,36.24,109.64,54.36.9.44,1.78.91,2.69,1.32,1.52.69,2.18,1.59,1.91,3.49-2.55,18.1-5,36.21-7.43,54.33-1.81,13.5-3.51,27.02-5.32,40.52-1.5,11.19-3.13,22.37-4.64,33.56-1.15,8.56-2.21,17.14-3.28,25.72-.2,1.62-.08,3.33-1.67,4.83Z" style="fill: #ae967c; stroke-width: 0px;"/>
  <path d="M297.05,297.17c8.39.8,16.79,1.56,25.18,2.43,8.22.85,16.42,1.83,24.63,2.72,7.88.85,15.78,1.65,23.66,2.5,7.72.84,15.42,1.94,23.16,2.52,5.96.45,11.74,1.98,17.72,2.22,9.91.4,19.71,2.13,29.6,2.95,10.71.88,21.45,1.78,32.12,3.18,8.21,1.08,16.48,1.74,24.72,2.67,10.34,1.17,20.66,2.48,31,3.63,5.26.59,10.54,1.03,15.82,1.42,1.5.11,2.97.18,4.39.7.31,1.59-.44,2.93-1.06,4.28-12.66,27.87-25.37,55.72-37.91,83.64-1.18,2.63-2.66,3.66-5.43,4.21-44.22,8.77-88.41,17.69-132.62,26.55-23.16,4.64-46.34,9.23-69.51,13.83-3.78.75-3.78.72-4.54-3.08-8.18-40.94-16.33-81.89-24.61-122.81-.69-3.42-.19-5.89,2.21-8.57,7.32-8.18,14.33-16.64,21.46-24.99Z" style="fill: #d0c0d9; stroke-width: 0px;"/>
  <path d="M264.13,350.65c1.17,2,1.32,4.34,1.76,6.54,6.23,30.81,12.42,61.62,18.61,92.44.82,4.08,1.63,8.15,2.41,12.24.51,2.66.19,5.29-.28,7.94-4.27,24.23-8.48,48.48-12.76,72.7-4.84,27.34-9.77,54.67-14.6,82.01-4.11,23.25-8.2,46.5-12.16,69.77-.8,4.7-2.43,8.86-5.09,12.82-5.84,8.71-11.4,17.61-17.08,26.43-.52.81-.88,1.76-2.36,2.36-.51-3.07-1.05-5.94-1.46-8.81-3.63-25.17-7.27-50.33-10.85-75.51-2.81-19.75-5.53-39.51-8.34-59.26-1.82-12.83-3.69-25.66-5.63-38.48-.47-3.07-.1-5.91.9-8.81,6.89-19.98,13.76-39.97,20.56-59.98,9.42-27.73,18.77-55.49,28.15-83.23,5.49-16.23,10.99-32.47,16.54-48.68.28-.83.18-2.02,1.67-2.48Z" style="fill: #ab8bac; stroke-width: 0px;"/>
  <path d="M853.49,777.04c1.85,1.62,1.86,3.37.18,5.79-1.17-2.2-.61-3.99-.18-5.79Z" style="fill: #1a1919; stroke-width: 0px;"/>
  <path d="M853.32,784.67c1.64.83,1.64,1.84,1.5,2.82-.06.39-.43.91-.79,1.05-.6.25-.86-.34-.97-.81-.23-.97-.18-1.93.26-3.06Z" style="fill: #1a1919; stroke-width: 0px;"/>
  <path d="M383.48,300.13c-.13.87-.81.92-1.46.92-.65,0-1.43-.03-1.43-.92,0-.88.78-.92,1.43-.91.65,0,1.34.03,1.46.92Z" style="fill: #141315; stroke-width: 0px;"/>
  <path d="M846.97,865.07c0-2.33,0-4.66.01-7,1.41,2.33,1.47,4.67-.01,7Z" style="fill: #2c2c2c; stroke-width: 0px;"/>
  <path d="M396.93,302.16c-.44-.18-.99-.35-.98-.4.2-.88.92-.55,1.46-.53.25,0,.48.31.73.48-.44.17-.88.33-1.21.46Z" style="fill: #1f1d20; stroke-width: 0px;"/>
  <path d="M145,1063.06c0,.66.02,1.31.03,1.97-.94.25-1.84.2-2.79-.21.64-1.17,1.79-1.31,2.76-1.75Z" style="fill: #a9a9a9; stroke-width: 0px;"/>
  <path d="M306.14,949.23c-.72,1.11-2.02.69-3,1.14.52-1.63,1.74-1.43,3-1.14Z" style="fill: #2c2c2c; stroke-width: 0px;"/>
  <path d="M589.99,269.12c-.74-2.21.78-3.87,1.56-5.6,11-24.42,22.08-48.8,33.18-73.18,2.29-5.03,1.13-5.49,6.94-2.53,33.98,17.28,67.96,34.57,101.94,51.83,30.87,15.68,61.75,31.33,92.62,47.01,4.9,2.49,9.75,5.05,14.63,7.58.22.93.02,1.44-1.06,1.06-9.25-.41-18.42-1.62-27.59-2.82-5.08-.67-10.21-1-15.31-1.5-8.06-.78-16.12-1.52-24.16-2.37-7.88-.84-15.74-1.85-23.61-2.71-8.21-.9-16.42-1.71-24.63-2.57-10.35-1.09-20.7-2.15-31.04-3.3-10.49-1.16-20.98-2.43-31.47-3.59-5.1-.56-10.21-.96-15.31-1.49-8.37-.87-16.74-1.81-25.11-2.7-7.72-.82-15.43-1.72-23.17-2.33-2.8-.22-5.52-1.28-8.38-.79Z" style="fill: #c0c7e3; stroke-width: 0px;"/>
  <path d="M875.95,296.18c-2.12.57-3.89-.35-5.69-1.26-26.56-13.5-53.11-27-79.68-40.49-27.31-13.86-54.62-27.71-81.93-41.57-18.1-9.2-36.2-18.41-54.28-27.64-3.23-1.65-6.36-3.47-10.16-5.55,6.72-1.82,12.94-2.4,19.05-3.45,17.04-2.91,34.11-5.59,51.14-8.55,2.79-.49,5.13-.27,7.64,1.01,20.77,10.54,41.58,21.03,62.4,31.47,25.28,12.68,50.58,25.31,75.88,37.95,18.16,9.07,36.33,18.13,54.48,27.21,2,1,4.02,2.11,2.28,4.9-13.71,8.66-27.42,17.31-41.13,25.97Z" style="fill: #869cb9; stroke-width: 0px;"/>
  <path d="M348.15,241.31c17.41-3.67,34.82-7.32,52.22-11.01,36.27-7.69,72.55-15.38,108.82-23.09,33.83-7.19,67.66-14.39,101.49-21.58.48-.1.97-.31,1.66.45-3.12,6.93-6.28,14.03-9.49,21.11-8.59,18.93-17.2,37.85-25.8,56.77-.66,1.46-.85,3.36-3.11,3.31-10.52-1.09-21.04-2.12-31.55-3.29-10.34-1.15-20.65-2.5-30.99-3.64-7.72-.85-15.48-1.43-23.21-2.24-7.89-.83-15.8-1.53-23.63-2.75-13.03-2.03-26.13-3.41-39.2-5.05-7.86-.99-15.79-1.82-23.71-1.97-12.41-.24-24.6-2.61-36.95-3.33-5.26-.31-10.5-1.2-15.74-1.83-.4-.57-1.56-.81-.81-1.87Z" style="fill: #d0c0d9; stroke-width: 0px;"/>
  <path d="M348.15,241.31c.27.62.54,1.25.81,1.87-1.9-.08-3.8-.16-5.7-.24,1.37-1.33,2.95-2,4.89-1.63Z" style="fill: #7e7683; stroke-width: 0px;"/>
  <path d="M839.8,295.28c.35-.35.71-.71,1.06-1.06,1.27.12,2.22.74,2.9,1.8-1.39.11-2.88.76-3.97-.75Z" style="fill: #838798; stroke-width: 0px;"/>
  <path d="M300.98,238.2l1.81-.32c-.37,1.41-1.01,1.33-1.81.32Z" style="fill: #2c2c2c; stroke-width: 0px;"/>
  <path d="M930.88,336.03c9.17.05,18.17,1.81,27.26,2.68,5.13.49,10.24,1.09,15.37,1.54,5.21.45,5.72.86,7.26,5.84,8.62,27.97,17.29,55.92,25.91,83.89,8.86,28.76,17.64,57.54,26.51,86.3,6.37,20.66,12.84,41.29,19.25,61.94,4.59,14.77,9.15,29.55,13.71,44.32,1.22,3.96,1.15,4.19-2.07,6.76-24.04,19.21-48.12,38.38-72.13,57.63-16.49,13.22-32.88,26.54-49.32,39.81-.38.31-.82.54-1.2.78-1.57-.36-1.46-1.73-1.81-2.76-9.42-27.55-18.8-55.11-28.25-82.65-1.29-3.75-2.38-7.59-4.32-11.09-.5-15.96-.43-31.92-.04-47.88.24-9.64.2-19.29.24-28.93.03-7.65-.44-15.33.07-22.95,1.36-20.44-.21-40.92.88-61.32,1.02-19.12-.04-38.23.79-57.32.41-9.46.42-18.93,1.05-28.38,2.6-13.75,8.31-26.55,12.3-39.87.5-1.66,1.79-2.77,2.55-4.24,2-1.36,4.01-2.72,6.01-4.08Z" style="fill: #6f8090; stroke-width: 0px;"/>
  <path d="M903.75,879.17c.04-.37.09-.74.13-1.12.78-5.18.6-10.37.19-15.57-.16-1.99-.22-3.98-.22-5.98.03-12.46.09-24.93.15-37.39,1.31-1.19,1.12-2.82.89-4.22-.95-5.86,1.54-10.66,4.39-15.4,10.34-17.23,20.74-34.43,30.42-52.03,2.18-3.96,5.47-6.63,8.79-9.31,12.4-9.97,24.97-19.73,37.38-29.69,11.12-8.92,22.09-18.03,33.2-26.96,11.62-9.34,23.33-18.57,35.25-28.04.59,1.7-.45,2.69-.98,3.72-8.69,17.05-17.13,34.22-25.88,51.25-15.51,30.17-30.23,60.74-45.77,90.89-13.5,26.18-26.58,52.57-39.8,78.89-1.39,2.77-3.25,5.14-5.65,6.86-3.15,2.25-5.68,5.1-8.51,7.67-7.12,6.48-14.27,12.93-21.39,19.4-.66.6-1.4.86-2.27.83-.07-2.95-.14-5.91-.22-8.86,0-1.69,0-3.38,0-5.08.13-6.29-.08-12.6.93-18.84.81-.81,1.84-.56,2.82-.6-1-.04-2.03-.2-2.86.58-.33-.34-.66-.68-1-1.02Z" style="fill: #515246; stroke-width: 0px;"/>
  <path d="M906.02,668.26c1.38,1.71,2.02,3.8,2.7,5.8,6.78,19.78,13.41,39.61,20.29,59.36,1.22,3.5.79,6.19-1.09,9.3-6.98,11.49-13.69,23.14-20.53,34.72-.56.95-.85,2.14-2.47,2.97v-22.31c.06-13.32.08-26.63.19-39.95.14-16.63,1.21-33.24.92-49.88Z" style="fill: #a39d9d; stroke-width: 0px;"/>
  <path d="M924.87,340.11c-3.35,11.95-7.71,23.57-11.55,35.36-.96,2.96-1.54,6.08-3.3,8.75-.05-10.61-.07-21.22-.17-31.82-.02-2,.68-3.26,2.35-4.52,3.99-3.01,8.47-5.14,12.67-7.76Z" style="fill: #2c2c2d; stroke-width: 0px;"/>
  <path d="M958.89,318.01c.99-.06,1.96-.12,2.71.76,2.21,2.58,4.45,5.14,6.48,8.13-6.44-.67-12.98.41-18.97-2.66,3.41-1.84,6.74-3.8,9.77-6.23Z" style="fill: #8298b4; stroke-width: 0px;"/>
  <path d="M904.75,880.19c1.84-1.74,3.65-1.38,6.44.44-2.81,0-4.59-.91-6.39-.42,0,0-.05-.02-.05-.02Z" style="fill: #626257; stroke-width: 0px;"/>
  <path d="M429.44,75.82c1.47,0,3.15.06,5.3.19,7.92.49,14.4,1.08,20.41,1.86,4.78.62,9.41.99,13.89,1.36,4.72.38,9.18.74,13.45,1.36,4.75.69,9.2.94,13.5,1.2,2.25.13,4.38.25,6.41.43,3.56.31,7.09.68,10.83,1.06,2.86.3,5.82.6,8.78.88,3.88.37,7.79.7,11.57,1.03,2.76.24,5.52.48,8.28.73,5.42.49,10.83,1,16.25,1.51l3.44.32c2.25.21,4.49.43,6.74.64,4.12.39,8.38.8,12.61,1.18,7.42.66,14.11,1.27,20.86,2,4.66.5,9.27.86,13.74,1.21,1.53.12,3.06.24,4.59.36,5.91.48,12.3,1.03,20.11,1.73,2.02.18,4.04.35,6.07.52,5.21.43,10.13.84,14.96,1.45,4.56.57,8.99.93,13.28,1.28,4.89.39,9.5.77,13.9,1.42,4.65.69,9.01.96,13.22,1.22,2.03.13,3.94.24,5.78.4,7.85.68,15.86,1.41,23.6,2.12l4.48.41c6.39.58,12.79,1.18,19.18,1.77l8.46.78,4.05.37,16.2,1.5,5.79.54c4.67.43,9.35.87,14.02,1.29,2.92.26,5.83.52,8.75.77,3.5.3,7,.61,10.5.93,5.69.52,11.38,1.05,17.07,1.59,3.68.35,7.37.69,11.06,1.03,2.78.26,5.56.51,8.34.77,3.8.35,7.6.69,11.39,1.05,2.86.27,5.72.55,8.57.83,3.57.35,7.14.7,10.72,1.03,4.1.38,8.2.74,12.3,1.1,2.67.23,5.35.47,8.02.71l5.77.52c7.32.65,14.89,1.33,22.31,2.03,3.34.31,6.77.67,10.1,1,3.3.34,6.72.69,10.12,1.01,4.13.39,8.3.75,12.32,1.09,2.19.19,4.39.38,6.58.57,6.29.56,12.58,1.12,18.87,1.68l1.37.12c2.67.24,5.33.48,8,.71,6.59.58,13.4,1.19,20.07,1.82,3.28.31,6.67.66,9.95,1,3.35.35,6.81.71,10.26,1.03,3.97.37,7.96.71,11.81,1.03,2.37.2,4.74.4,7.12.6,6.27.55,13,1.14,19.67,1.76,8.56.8,17.42,1.64,27.08,2.57,2.81.27,5.63.56,8.44.84,4.37.44,8.88.9,13.38,1.3,3.15.29,6.28.52,9.31.76,3.27.25,6.36.49,9.46.77,5.99.56,12.1,1.17,18.02,1.77,2.58.26,5.15.52,7.73.77-.38,5.59-.37,10.95-.37,16.18,0,4.81,0,9.35-.29,13.66-.34,4.84-.36,9.43-.38,13.88-.02,4.2-.04,8.16-.33,11.87-.41,5.26-.4,10.2-.39,14.98.01,4.23.02,8.22-.28,11.89-.43,5.19-.4,10.03-.38,14.71.02,4.27.04,8.3-.31,11.92-.54,5.53-.53,10.66-.52,15.62,0,4.06.02,7.9-.3,11.36-.5,5.47-.49,10.56-.48,15.48,0,3.83.02,7.44-.24,10.76-.4,5.22-.38,10.14-.37,14.9.01,4.39.03,8.53-.3,12.33-.48,5.64-.49,10.94-.5,16.06,0,3.67-.01,7.14-.2,10.44-.71,12.65-.98,25.34-1.24,37.62-.12,5.66-.25,11.52-.41,17.24-.1,3.31-.1,6.54-.1,9.66,0,5.15-.01,10.01-.42,14.53-.52,5.67-.51,10.99-.51,16.13,0,4.38,0,8.52-.33,12.31-.52,5.82-.54,11.28-.55,16.57,0,3.24-.02,6.3-.15,9.26-.44,10.29-.67,20.66-.89,30.69-.18,7.98-.36,16.24-.65,24.29-.14,3.88-.19,7.72-.25,11.43-.07,4.91-.14,9.54-.38,14.11-.59,11.13-.81,22.29-1.02,33.08-.14,6.95-.28,14.14-.52,21.14-.13,3.9-.17,7.75-.21,11.47-.05,5.05-.1,9.82-.37,14.48-.74,12.77-1.01,25.58-1.27,37.97-.11,5.39-.23,10.97-.39,16.42-.09,3.28-.1,6.49-.11,9.59-.01,5.18-.02,10.07-.42,14.65-.5,5.62-.5,10.91-.5,16.02,0,4.41,0,8.57-.34,12.4-.5,5.7-.52,11.08-.55,16.27-.02,3.17-.03,6.16-.15,9.05-.42,10.11-.65,20.3-.86,30.15-.18,8.32-.37,16.93-.68,25.31-.15,3.96-.2,7.88-.25,11.66-.06,4.84-.12,9.41-.37,13.9-.87,16.13-1.32,33.53-1.41,54.78-.02.32-.13,1.14-.21,1.75-.02.17-.05.35-.07.54-1.47,1.45-2.91,2.89-4.31,4.31-3.5,3.52-6.8,6.85-10.19,9.79-4.64,4.04-8.71,8.25-12.65,12.31-1.62,1.67-3.15,3.25-4.69,4.79-2,1.99-3.97,4.01-5.88,5.95-4.12,4.19-8.01,8.16-12.02,11.89-8.2,7.62-16.08,15.55-23.69,23.22-6.83,6.87-13.88,13.98-20.93,20.6-6.95,6.53-13.66,13.29-20.14,19.82-6.95,7.01-13.52,13.62-20.4,20.03-7.75,7.22-15.19,14.72-22.38,21.97-7.07,7.14-13.76,13.87-20.76,20.41-7.17,6.7-14.06,13.65-20.72,20.36-6.78,6.83-13.18,13.29-19.88,19.53-7.64,7.12-14.98,14.51-22.07,21.66-6.94,6.99-13.5,13.6-20.36,20.02-9.51,8.9-18.75,18.19-26.81,26.43-3.43-.21-7.3-.95-11.36-1.73-2.7-.52-5.49-1.05-8.44-1.5-11.34-1.71-22.94-3.7-34.16-5.63-5.35-.92-10.87-1.87-16.34-2.78-13.4-2.24-26.8-4.47-40.2-6.7-12.01-2-24.02-4-36.03-6.01-14.32-2.39-28.64-4.79-42.95-7.2-8.15-1.37-16.31-2.74-24.46-4.1-7.91-1.33-15.82-2.65-23.73-3.98-19.3-3.24-39.25-6.59-58.9-9.85-11.78-1.95-23.74-3.89-35.32-5.76-9.13-1.48-18.25-2.96-27.38-4.45-38-6.24-68.92-11.34-97.32-16.05-17.13-2.84-34.56-5.78-51.41-8.62l-13.52-2.28c-12.26-2.06-24.52-4.13-36.77-6.2-19.01-3.21-38.02-6.42-57.04-9.61-11.35-1.91-22.71-3.79-34.06-5.67-9.34-1.55-18.68-3.1-28.02-4.66-11.73-1.96-23.47-3.93-35.2-5.9-16.97-2.85-34.51-5.8-51.78-8.67l-5.25-.88c-8.57-1.43-17.37-2.91-26.23-4.19-.1-3.89-.26-7.72-.42-11.48-.19-4.45-.37-8.64-.45-12.86-.33-17.17-.8-34.39-1.4-51.16-.11-3.05-.15-6.12-.2-9.38-.07-4.84-.14-9.85-.44-14.98-.62-10.48-.86-21.33-1.1-31.82-.13-5.71-.26-11.61-.45-17.46-.09-2.63-.09-5.33-.1-8.19-.02-5.61-.03-11.41-.64-17.54-.39-3.91-.4-8.16-.41-12.66-.01-3.82-.02-7.77-.26-11.91-.56-9.83-.78-20-.99-29.84-.13-6.06-.27-12.33-.48-18.56-.09-2.76-.11-5.59-.12-8.59-.03-5.79-.06-11.79-.68-18.09-.38-3.8-.39-7.94-.4-12.32-.01-3.58-.02-7.29-.23-11.17-.5-9.46-.72-19.23-.93-28.68-.15-6.65-.31-13.52-.56-20.35-.1-2.79-.12-5.66-.13-8.7-.03-5.75-.05-11.69-.69-17.96-.39-3.91-.4-8.17-.41-12.67,0-3.42-.02-6.97-.19-10.67-.42-8.99-.65-18.25-.87-27.21-.18-7.18-.36-14.61-.64-21.98-.13-3.32-.18-6.65-.23-10.18-.08-4.88-.15-9.93-.45-15.08-.56-9.99-.79-20.33-1.02-30.33-.13-5.9-.27-12.01-.47-18.07-.11-3.19-.15-6.39-.19-9.78-.07-5.22-.13-10.62-.46-16.15-.59-9.99-.84-20.33-1.08-30.33-.14-5.89-.29-11.98-.5-18.03-.1-2.81-.11-5.71-.12-8.77-.01-5.54-.03-11.26-.59-17.29-.29-3.12-.28-6.6-.27-10.29.01-4.48.03-9.55-.52-14.81-.35-3.33-.34-7.05-.34-10.99,0-4.31,0-8.77-.41-13.56-.27-3.15-.26-6.62-.26-10.31,0-4.32.02-8.78-.39-13.58-.28-3.25-.27-6.82-.26-10.61.01-4.79.02-9.73-.49-15.06-.36-3.74-.37-7.82-.38-12.14,0-3.85-.02-7.82-.27-12.02-.59-9.77-.79-19.46-1.01-29.72-.13-6.08-.26-12.36-.48-18.61-.1-2.96-.13-5.97-.15-9.16-.04-5.7-.08-11.6-.61-17.75-.22-2.61-.26-5.5-.29-8.55-.02-1.39-.03-2.79-.06-4.23,11.73-5.3,23.64-10.58,35.2-15.69,7.72-3.42,15.7-6.95,23.56-10.46,9.14-4.08,18.39-8.27,27.34-12.32,8.03-3.63,16.32-7.39,24.48-11.04,9.06-4.06,18.3-8.16,27.24-12.12,7.62-3.38,15.5-6.88,23.26-10.34,7.24-3.24,14.58-6.55,21.67-9.75,5.67-2.56,11.33-5.12,17-7.66,10.9-4.89,21.8-9.75,32.71-14.62l10.47-4.67c5.59-2.49,11.17-4.99,16.76-7.48,9.74-4.35,19.48-8.69,29.22-13.05,6.9-3.09,13.79-6.18,20.68-9.27,7.65-3.43,15.3-6.87,22.95-10.29,3.83-1.71,7.82-3.43,11.67-5.09,8.99-3.88,18.29-7.89,27.42-12.56,2.49-1.28,5.27-1.79,9.6-1.79M429.44,55.98c-6.32,0-12.51.83-18.64,3.97-12.4,6.35-25.41,11.51-38.15,17.2-14.55,6.51-29.09,13.06-43.64,19.57-15.32,6.85-30.64,13.68-45.97,20.52-14.4,6.43-28.81,12.85-43.2,19.31-12.89,5.78-25.75,11.64-38.65,17.4-16.83,7.52-33.7,14.93-50.52,22.47-17.29,7.74-34.51,15.63-51.8,23.35-21.22,9.48-42.54,18.76-63.69,28.39-4.31,1.96-7.5,5.29-7.06,10.94.5,6.45.11,12.92.67,19.41.74,8.59.4,17.26.7,25.9.57,16.27.54,32.55,1.52,48.82.5,8.28-.1,16.58.71,24.9.82,8.41,0,16.93.73,25.42.67,7.93-.04,15.93.65,23.92.71,8.26-.08,16.57.78,24.89.85,8.23,0,16.57.77,24.89.77,8.26.34,16.61.63,24.93.58,16.27.64,32.56,1.61,48.82.5,8.46.34,16.95.63,25.42.55,16.28.59,32.57,1.51,48.85.47,8.29.34,16.6.66,24.9.63,16.44.75,32.91,1.51,49.36.38,8.13-.14,16.25.68,24.41.85,8.41.42,16.92.73,25.4.6,16.44.64,32.91,1.5,49.35.43,8.12-.11,16.25.7,24.41.83,8.41.43,16.93.72,25.41.56,16.28.57,32.57,1.5,48.84.48,8.45-.1,16.92.74,25.4.8,8.08.39,16.27.66,24.42.54,16.6.59,33.21,1.57,49.81.47,7.95.33,15.93.62,23.9.61,16.94,1.07,33.89,1.39,50.84.21,11.13,1.07,22.25.96,33.38-.01.98-.16,2.02.62,2.83,2.86,2.96,5.45,5.89,10.12,6.51,12.45,1.66,24.84,3.8,37.23,5.87,28.99,4.82,57.97,9.72,86.96,14.57,20.69,3.46,41.38,6.86,62.06,10.33,31.27,5.25,62.53,10.54,93.8,15.81,21.66,3.65,43.31,7.31,64.98,10.91,32.45,5.38,64.9,10.73,97.35,16.06,20.88,3.43,41.79,6.75,62.66,10.21,27.54,4.56,55.06,9.21,82.59,13.82,22.48,3.77,44.95,7.54,67.42,11.3,25.41,4.25,50.83,8.46,76.23,12.71,16.94,2.83,33.84,5.91,50.81,8.46,8.18,1.23,16.22,3.5,24.59,3.5.81,0,1.62-.02,2.44-.07,2.86-.16,4.98-.9,7-2.97,9.52-9.78,19.12-19.47,29.1-28.8,14.46-13.54,27.9-28.13,42.41-41.65,13.88-12.94,26.73-26.94,40.61-39.91,14.72-13.75,28.35-28.62,43.11-42.36,13.89-12.93,26.77-26.9,40.61-39.91,15.16-14.25,29.3-29.57,44.55-43.75,6.34-5.9,12.29-12.22,18.42-18.34,5.42-5.42,10.57-11.15,16.34-16.17,6.67-5.81,12.56-12.37,19-18.4.99-.93,1.9-1.91,1.83-3.39-.15-3.18.76-6.28.78-9.42.08-17.96.41-35.91,1.38-53.85.47-8.62.31-17.27.63-25.9.68-18.44.76-36.91,1.54-55.36.34-8.13-.07-16.26.64-24.42.82-9.41,0-18.92.84-28.4.74-8.43.36-16.95.6-25.43.51-17.94.59-35.88,1.63-53.81.51-8.79.3-17.61.6-26.42.61-17.94.56-35.9,1.52-53.84.46-8.62.34-17.26.64-25.9.65-18.27.75-36.57,1.53-54.84.35-8.3-.11-16.59.64-24.92.84-9.41-.02-18.92.84-28.4.77-8.42.36-16.94.6-25.42.53-18.11.61-36.23,1.63-54.33.48-8.62-.09-17.25.66-25.91.78-9.09,0-18.28.68-27.43.65-8.61-.11-17.26.69-25.92.82-8.91-.06-17.9.81-26.88.86-8.91-.02-17.93.72-26.92.73-8.93-.04-17.94.67-26.93.68-8.6.12-17.26.72-25.92.77-11.09-.19-22.28.96-33.39,0-2,.06-4-.02-6-.07-1.62.53-3.38-.72-4.81-2.86-3.26-5.74-6.47-10.41-6.47-.4,0-.82.02-1.25.07-.29.03-.58.05-.88.05-.7,0-1.41-.08-2.11-.15-9.54-.94-19.07-1.93-28.61-2.82-6.26-.58-12.55-.97-18.82-1.54-7.24-.66-14.47-1.43-21.7-2.13-9.05-.87-18.1-1.73-27.15-2.58-6.59-.61-13.18-1.2-19.78-1.77-6.27-.55-12.54-1.03-18.8-1.62-6.74-.64-13.47-1.4-20.21-2.04-9.38-.88-18.77-1.7-28.16-2.54-6.76-.6-13.51-1.21-20.27-1.81-6.26-.55-12.53-1.06-18.79-1.65-6.74-.64-13.48-1.38-20.22-2.01-9.39-.88-18.78-1.71-28.17-2.55-6.75-.61-13.51-1.17-20.26-1.8-6.42-.59-12.83-1.25-19.25-1.86-6.59-.62-13.17-1.21-19.76-1.82-9.38-.87-18.76-1.76-28.15-2.62-6.42-.59-12.85-1.12-19.28-1.7-6.59-.59-13.18-1.21-19.77-1.82-6.75-.62-13.5-1.25-20.25-1.87-9.22-.85-18.44-1.71-27.66-2.55-9.39-.86-18.77-1.73-28.17-2.54-5.94-.52-11.94-.62-17.82-1.48-9.17-1.35-18.43-1.6-27.62-2.75-7.22-.9-14.48-1.39-21.73-2.04-6.75-.6-13.5-1.19-20.26-1.74-5.94-.49-11.91-.89-17.82-1.52-7.07-.76-14.14-1.4-21.22-2.03-6.42-.57-12.84-1.21-19.26-1.81-6.59-.62-13.17-1.24-19.76-1.84-6.59-.6-13.19-1.13-19.78-1.75-6.58-.62-13.15-1.38-19.73-1.95-6.27-.55-12.6-.6-18.81-1.5-9.17-1.33-18.44-1.56-27.62-2.75-7.21-.94-14.48-1.54-21.75-1.99-2.19-.14-4.36-.23-6.52-.23h0Z" style="fill: #fff; stroke-width: 0px;"/>
  <polyline points="1177.65 144.49 881.04 327.81 48.23 243.18" style="fill: none; stroke: #fff; stroke-miterlimit: 10; stroke-width: 19.84px;"/>
  <line x1="881.04" y1="327.81" x2="869.36" y2="1213.08" style="fill: none; stroke: #fff; stroke-miterlimit: 10; stroke-width: 19.84px;"/>
  <path d="M1198.1,137.21c-.03-4.87-4.42-10.2-9.32-10.41-3.81-.17-7.54-.89-11.35-1.06-6.27-.29-12.52-.97-18.77-1.56-6.73-.64-13.45-1.42-20.19-2.05-9.21-.86-18.43-1.62-27.64-2.45-6.74-.61-13.48-1.27-20.22-1.87-6.26-.56-12.52-1.04-18.78-1.63-6.9-.65-13.79-1.43-20.69-2.06-9.05-.83-18.11-1.53-27.16-2.34-6.91-.62-13.81-1.34-20.71-1.97-6.25-.57-12.51-1.06-18.77-1.65-6.9-.65-13.78-1.42-20.68-2.05-9.05-.83-18.1-1.56-27.15-2.39-6.41-.59-12.82-1.29-19.23-1.91-7.07-.69-14.14-1.36-21.21-2-6.74-.6-13.49-1.14-20.24-1.72-8.72-.76-17.45-1.52-26.17-2.31-6.91-.63-13.81-1.32-20.71-1.97-6.41-.61-12.83-1.2-19.24-1.8-6.74-.63-13.47-1.3-20.21-1.91-9.05-.82-18.1-1.58-27.15-2.4-6.57-.6-13.14-1.26-19.72-1.89-6.74-.64-13.49-1.28-20.23-1.9-6.74-.62-13.48-1.23-20.23-1.82-8.89-.78-17.78-1.5-26.67-2.3-6.91-.62-13.81-1.33-20.71-1.99-6.41-.61-12.83-1.22-19.24-1.83-6.57-.63-13.13-1.3-19.7-1.88-9.05-.8-18.11-1.5-27.16-2.3-7.08-.62-14.14-1.33-21.21-2-6.41-.61-12.82-1.23-19.22-1.82-6.9-.64-13.8-1.28-20.71-1.89-8.73-.77-17.46-1.46-26.18-2.29-9.2-.87-18.39-1.92-27.59-2.76-6.26-.57-12.59-.63-18.81-1.45-10.2-1.34-20.39-2.28-30.68-2.07-1.65.03-3.26-.04-4.88.7-11.63,5.28-23.29,10.48-34.94,15.71-14.69,6.59-29.36,13.21-44.05,19.79-14.84,6.64-29.7,13.21-44.54,19.85-15,6.71-29.97,13.47-44.97,20.17-14.84,6.63-29.71,13.2-44.55,19.84-15,6.71-29.96,13.48-44.95,20.19-14.84,6.64-29.71,13.22-44.56,19.85-12.72,5.69-25.41,11.45-38.15,17.13-14.09,6.28-28.28,12.34-42.27,18.84-4.15,1.93-6.89,5.2-6.72,10.62.48,14.77.29,29.55,1.26,44.31.56,8.6-.11,17.23.75,25.86.81,8.07,0,16.24.71,24.39.71,8.25-.01,16.58.67,24.89.67,8.09-.07,16.23.74,24.37.82,8.23-.04,16.56.78,24.87.81,8.24.37,16.58.64,24.89.54,16.42.62,32.86,1.6,49.28.49,8.28.33,16.59.63,24.9.58,16.26.62,32.54,1.5,48.8.45,8.28.34,16.58.66,24.88.65,16.59.74,33.21,1.53,49.8.38,7.96-.11,15.91.64,23.9.81,8.57.01,17.23.82,25.88.74,7.92,0,15.92.67,23.9.7,8.26-.02,16.59.69,24.9.7,8.08-.01,16.23.76,24.38.81,8.57.45,17.25.74,25.88.54,16.09.62,32.21,1.48,48.3.45,8.44-.11,16.9.73,25.38.81,8.07.39,16.26.67,24.39.56,16.59.57,33.2,1.55,49.78.47,7.94.32,15.91.62,23.87.65,16.92.73,33.86,1.53,50.78.37,7.78-.1,15.56.67,23.37.84,8.56.43,17.24.72,25.87.36,10.95.85,21.92.8,32.89,0,1.32-.21,2.69.85,3.77,2.88,2.96,5.51,6.37,10.23,6.21,1.56-.05,2.9.61,4.37.85,22.78,3.72,45.56,7.46,68.34,11.23,27.65,4.58,55.3,9.18,82.94,13.82,25.2,4.23,50.36,8.68,75.59,12.74,21.81,3.51,43.59,7.18,65.37,10.88,32.18,5.48,64.4,10.78,96.61,16.08,25.4,4.18,50.83,8.15,76.22,12.37,28.63,4.76,57.23,9.76,85.86,14.53,23.75,3.96,47.54,7.65,71.28,11.61,28.61,4.77,57.19,9.75,85.79,14.56,24.23,4.07,48.46,8.09,72.71,12.02,7.81,1.27,15.54,3.27,23.59,2.7,2.45-.17,4.38-.75,6.16-2.59,9.73-10.02,19.56-19.92,29.77-29.48,14.21-13.3,27.4-27.64,41.66-40.91,14-13.03,26.94-27.15,40.93-40.22,14.59-13.62,28.09-28.35,42.7-41.97,13.98-13.03,26.98-27.09,40.9-40.21,15.37-14.48,29.77-29.98,45.22-44.4,6.57-6.13,12.71-12.72,19.12-19.02,10.91-10.73,21.87-21.41,32.84-32.07,1.59-1.55,2.63-3.12,2.92-5.5,1.44-11.91.04-23.89,1.33-35.82.91-8.39.14-16.9.67-25.39.67-10.76.16-21.6.78-32.39.39-6.79.12-13.59.61-20.41.73-10.25.06-20.57.9-30.86.62-7.6.32-15.27.56-22.9.59-18.59.63-37.19,1.64-55.77.44-8.12-.03-16.24.62-24.4.78-9.74.07-19.58.76-29.38.55-7.78.02-15.58.61-23.4.74-9.75.02-19.57.88-29.36.72-8.09.03-16.24.66-24.39.74-9.59.06-19.26.73-28.9.57-8.11.05-16.24.63-24.4.75-10.57.08-21.23.92-31.85.56-7.11.36-14.28.56-21.41.53-18.59.62-37.18,1.62-55.76.44-8.12.03-16.24.62-24.4.76-10.42.08-20.93.77-31.4.47-7.11.07-14.25.6-21.4.72-9.75.03-19.57.88-29.37.72-8.26,0-16.58.67-24.9.75-9.25.02-18.58.71-27.89.62-8.27-.02-16.57.67-24.9.79-9.57.03-19.23.86-28.87.72-8.43.21-16.93.66-25.41.57-10.94.16-21.94.76-32.9,0-2.16.01-4.33,0-6.49ZM871.36,346.87c-1.34,17.46-.01,34.95-.69,52.4-.83,21.46.13,42.95-.79,64.38-.83,19.31.26,38.62-.73,57.88-1.03,19.97.12,39.94-.78,59.88-.73,16.14,0,32.28-.57,48.4-.82,23.12.07,46.28-.86,69.37-.77,19.14.22,38.28-.72,57.37-.99,20.14-.15,40.27-.68,60.39-.43,16.28-.08,32.57-.65,48.83-.8,22.91.09,45.84-.87,68.72-.81,19.31.17,38.61-.73,57.88-.93,19.81.19,39.62-.7,59.39-.86,19.14.28,38.29-.67,57.39-1.01,20.3.14,40.61-.84,60.87-.52,10.78-.15,21.57-.77,33.07-254.69-42.39-509.13-84.73-763.57-127.08.04-.35.07-.7.11-1.05,65.83-46.38,131.67-92.77,197.63-139.24l-11.57-20.03c-6.41,4.4-12.16,9.52-18.84,13.49-4.51,2.68-8.31,6.54-12.8,9.28-7.42,4.54-13.74,10.66-21.51,14.67-2.2,1.13-3.81,3.11-5.88,4.53-10.73,7.36-21.19,15.11-31.84,22.59-9.84,6.91-20,13.39-29.66,20.56-6.83,5.07-13.9,9.84-20.71,14.94-3.01,2.25-5.95,5.04-9.76,6.36-2.3.8-4,2.88-5.88,4.34-4.94,3.83-10.16,7.3-15.26,10.86-5.38,3.75-10.48,7.94-16.16,11.3-3.24,1.92-6.46,4.04-9.24,6.56-2.6,2.36-5.79,3.45-9,6.2.28-11.02-.66-21.05-.78-31.14-.11-10.12-.12-20.29-.79-30.37-.55-8.14-.21-16.26-.65-24.37-.89-16.42-.93-32.86-1.51-49.28-.29-8.3-.14-16.6-.63-24.88-.98-16.41-1.04-32.84-1.58-49.26-.28-8.3.15-16.65-.65-24.89-.82-8.48,0-16.96-.8-25.36-.73-7.65-.3-15.27-.63-22.89-.74-16.93-.9-33.88-1.54-50.81-.3-7.96-.23-15.94-.65-23.89-.88-16.59-.91-33.21-1.51-49.81-.29-8.13-.14-16.28-.62-24.39-.97-16.59-1.07-33.19-1.61-49.78-.26-8.14.15-16.32-.62-24.4-.81-8.48-.03-16.97-.81-25.38-.76-8.15-.05-16.3-.72-24.39-.68-8.15.04-16.32-.66-24.41-.72-8.32.08-16.66-.72-24.9-.82-8.48-.04-16.97-.81-25.37-.73-7.99-.04-15.97-.69-23.9-.68-8.31.05-16.65-.68-24.9-.73-8.31-.18-16.62-.67-24.9-.97-16.42-1.1-32.85-1.6-49.28-.25-8.14.11-16.31-.63-24.39-.81-8.81-.48-17.59-.7-26.38-.02-.97-.28-1.94-.52-3.48,272.85,29.12,545.57,58.22,818.33,87.32.95,1.75.58,3.63.44,5.39ZM872.35,318.16c-5.16-1.02-10.51-1.12-15.76-1.69-8.36-.91-16.71-1.93-25.07-2.82-7.56-.8-15.13-1.46-22.69-2.25-8.2-.85-16.4-1.77-24.6-2.66-7.55-.81-15.1-1.62-22.65-2.43-8.21-.87-16.41-1.74-24.62-2.6-10.51-1.09-21.03-2.12-31.53-3.26-7.87-.85-15.71-1.89-23.58-2.74-7.72-.84-15.45-1.52-23.17-2.31-8.04-.82-16.08-1.68-24.12-2.55-7.71-.83-15.41-1.72-23.12-2.55-8.21-.89-16.41-1.75-24.62-2.6-10.34-1.08-20.69-2.11-31.02-3.23-8.03-.87-16.05-1.88-24.08-2.76-7.39-.81-14.78-1.55-22.17-2.29-8.05-.81-16.11-1.44-24.14-2.41-7.69-.93-15.4-1.68-23.11-2.45-7.71-.77-15.39-1.9-23.08-2.92-6.71-.89-13.45-1.45-20.2-1.99-9.72-.77-19.42-1.82-29.12-2.85-10.85-1.15-21.67-2.47-32.54-3.46-10.18-.93-20.3-2.44-30.45-3.56-7.72-.85-15.46-1.44-23.18-2.24-8.04-.84-16.06-1.84-24.1-2.71-7.55-.82-15.11-1.56-22.67-2.32-8.05-.81-16.1-1.55-24.14-2.41-7.87-.84-15.73-1.83-23.6-2.69-8.2-.9-16.41-1.75-24.61-2.61-8.04-.84-16.09-1.65-24.13-2.53-10.33-1.13-20.65-2.35-30.98-3.48-7.39-.81-14.79-1.53-22.18-2.3-6.06-.63-12.12-1.27-18.17-1.91-.61-.63-.61-1.27-.03-1.92,20.89-9.35,41.76-18.74,62.66-28.06,23.92-10.67,47.89-21.26,71.8-31.94,17.11-7.64,34.17-15.4,51.28-23.06,14.68-6.57,29.4-13.04,44.08-19.6,12.72-5.68,25.4-11.45,38.11-17.13,14.99-6.7,30-13.34,44.99-20.04,4.66-2.08,9.28-4.23,13.64-6.23,1.37.81,1.07,1.72,1.09,2.48.95,27.09.86,54.19.74,81.29-.03,6.83.69,13.6.79,20.42.02,1.62-.3,2.65-1.33,3.24l22.24-4.72c-.74-1.8-.41-3.46-.42-5.08-.07-14.65.41-29.32-.26-43.94-.84-18.3-.21-36.58-.49-54.86-.08-4.94.06-5.28,5-4.55,9.16,1.35,18.44,1.28,27.6,2.75,5.86.94,11.87.95,17.8,1.46,6.74.58,13.47,1.27,20.2,1.89,6.74.62,13.48,1.2,20.22,1.83,6.74.63,13.46,1.34,20.2,1.95,8.88.8,17.77,1.53,26.65,2.32,6.74.6,13.47,1.25,20.2,1.88,6.58.61,13.15,1.22,19.73,1.84,6.58.62,13.15,1.29,19.73,1.89,9.05.82,18.1,1.56,27.15,2.39,7.06.64,14.12,1.38,21.18,2.04,6.41.59,12.84,1.1,19.25,1.69,6.57.6,13.14,1.27,19.71,1.88,6.57.62,13.14,1.23,19.71,1.82,7.06.62,14.12,1.23,21.18,1.97,5.74.6,11.53,1.09,17.3,1.54,6.91.54,13.81,1.2,20.71,1.82,7.08.63,14.18,1.04,21.22,1.97,6.39.84,12.83,1.09,19.23,1.87,6.05.73,12.15,1.23,18.24,1.72,7.4.59,14.79,1.24,22.17,2.07,5.74.64,11.54.9,17.3,1.47,6.89.68,13.79,1.29,20.69,1.91,7.07.63,14.17,1.03,21.21,1.89,9.34,1.15,18.75,1.36,28.07,2.75,6.04.9,12.2.97,18.3,1.48,6.41.54,12.82,1.16,19.23,1.74,7.24.66,14.5,1.11,21.7,2.03,9.01,1.16,18.08,1.39,27.09,2.69,5.85.84,11.86.99,17.79,1.53,7.07.63,14.13,1.25,21.2,1.89,6.74.61,13.49,1.08,20.21,1.88,9.34,1.12,18.76,1.23,28.06,2.75,2.21.36,4.53.05,6.8.05.1.35.2.7.3,1.05-5.32,3.47-10.6,7.01-15.97,10.4-15.41,9.75-30.87,19.43-46.29,29.17-20.89,13.18-41.78,26.36-62.64,39.58-16.11,10.21-32.16,20.51-48.28,30.71-20.16,12.77-40.37,25.47-60.54,38.24-11.07,7.01-22.18,13.95-33.1,21.19-3.57,2.37-6.91,3.16-11.17,2.31ZM1175.48,173.6c-1.05,7.31-.07,14.63-.68,21.89-.9,10.78-.24,21.59-.93,32.33-.41,6.48-.13,12.95-.58,19.4-.76,10.96-.01,21.96-.78,32.87-.61,8.65-.1,17.27-.62,25.88-1.1,18.07-1.02,36.16-1.62,54.23-.28,8.47.19,16.97-.6,25.39-.9,9.63,0,19.29-.87,28.85-.72,7.99-.03,15.95-.66,23.87-.76,9.63.03,19.3-.73,28.87-.66,8.32.08,16.63-.67,24.88-.87,9.62-.13,19.27-.88,28.84-.56,7.15-.19,14.27-.58,21.39-.59,10.62-.13,21.28-.8,31.87-.54,8.48-.1,16.94-.6,25.38-1.07,18.23-1.05,36.49-1.64,54.72-.27,8.3.15,16.62-.58,24.87-.87,9.79-.03,19.62-.88,29.34-.67,7.65-.07,15.27-.64,22.87-.74,9.96-.02,19.96-.76,29.87-.61,8.15.13,16.3-.65,24.38-.93,9.62-.04,19.27-.87,28.83-.73,8.48.04,16.95-.65,25.37-.77,9.47.12,18.97-.71,28.37-.72,8.15.1,16.3-.71,24.37-.77,7.61-.51,15.22-.76,23.38-59.82-8.59-119.36-17.15-179.4-25.77l-17.01,21.24c1.15-1.1,2.22-1.48,3.92-1.44,5.63.14,10.96,1.94,16.51,2.51,6.72.69,13.37,2.09,20.1,2.65,5.26.44,10.2,2.36,15.52,2.57,5.58.23,11.2.93,16.65,2.14,8.08,1.78,16.27,2.48,24.42,3.62,10.76,1.5,21.54,2.95,32.23,4.86,10.24,1.83,20.63,2.53,30.87,4.34,7.1,1.25,14.27,2.19,21.36,3.27-1.35,1.52-2.62,3.09-4.04,4.52-10.93,10.97-21.63,22.19-32.9,32.79-14.43,13.57-27.89,28.11-42.35,41.62-12.78,11.93-24.66,24.75-37.37,36.73-15.25,14.39-29.64,29.66-44.88,44.04-13.44,12.68-26,26.23-39.49,38.82-14.61,13.63-28.25,28.22-42.71,41.97-4.08,3.88-8.15,7.79-12.3,11.6-1.66-.66-.95-2.04-.92-3.01.83-25.62.29-51.25.89-76.86.31-13.31.1-26.61.46-39.91.7-25.62.13-51.26.94-76.86.62-19.47-.11-38.94.71-58.37.43-10.15-.24-20.36.85-30.39.71-6.5.82-12.95,1.1-19.43.04-.99.27-2.09-.07-2.95-2.01-5-.72-10.08-.67-15.15.1-12.15-.3-24.32.1-36.46.8-24.29,0-48.6.89-72.85.69-18.98-.16-37.94.69-56.88.89-19.97-.18-39.96.69-59.89.84-18.98-.27-37.97.69-56.9,1.03-20.47-.16-40.94.82-61.37.93-19.14-.13-38.28.71-57.39.87-19.81-.25-39.62.67-59.39.91-19.64.32-39.27.51-58.9.04-4.45,1.47-7.22,5.34-9.63,27.57-17.19,55.02-34.59,82.48-51.95,17.95-11.35,35.85-22.77,53.8-34.13,22.97-14.54,45.97-29.04,68.94-43.59,15.84-10.03,31.63-20.13,47.45-30.18,7.82-4.97,15.67-9.88,24.33-15.34,0,4.96.49,9.26-.11,13.4Z" style="fill: #fff; stroke-width: 0px;"/>
</svg>