<?xml version="1.0" encoding="UTF-8"?>
<svg id="add_boundary" xmlns="http://www.w3.org/2000/svg" viewBox="0 0 1270.51 1333.2">
  <path d="M676.96,86.32c.04.31.07.61.09.92-.92,1.51-2.44,2.04-4.04,2.26-5.45.74-10.94,1.1-16.44,1.06-1.61-.01-3.19-.34-4.28-1.74-.05-.3-.06-.6-.02-.9,8.23-.53,16.46-1.07,24.69-1.6Z" style="fill: #d1d1d1; stroke-width: 0px;"/>
  <path d="M652.3,88.82c8.25-.53,16.51-1.05,24.76-1.58,75.92,16.24,151.85,32.47,227.76,48.75,8.62,1.85,13.89,8.74,19.66,14.39,60.42,59.2,120.92,118.34,180.7,178.19,11.32,11.33,15.95,27.83,24.59,41.38,20.27,31.82,33.44,66.67,44.42,102.51,2.57,8.38,2.18,17.03,2.66,25.56,4.66,81.77,9.18,163.54,13.65,245.32.54,9.8-5.45,17.62-9.07,26.03-18.09,42.06-36.72,83.89-54.81,125.95-4.15,9.65-10.4,17.48-17.57,24.78-74.82,76.24-149.67,152.44-224.46,228.71-2.59,2.64-5.56,4.14-8.85,5.66-35.88,16.6-74.34,12.91-112.07,14.12-74.7,2.4-149.41,4.16-224.12,6.19-18.63.51-37.27.91-55.89,1.58-6.56.24-12.63-.77-18.77-3.3-30.77-12.66-61.55-25.29-92.57-37.3-9.89-3.83-17.73-9.92-25.01-17.11-58.8-58.04-117.56-116.14-176.34-174.2-1.68-1.66-2.83-3.5-3.76-5.73-18.29-44.16-25.44-90.9-31.19-137.81-12.29-100.29-23.85-200.66-35.59-301.02-1.98-16.9-3.25-33.88-5.11-50.8-.56-5.12.73-9.41,3.32-13.7,22.22-36.78,44.34-73.62,66.52-110.42,7.19-11.93,18.01-20.18,28.85-28.47,63.02-48.2,125.84-96.68,189.06-144.62,12.7-9.63,29.18-11.25,43.8-16.86,37.76-14.48,78.05-17.76,117.24-25.86,35.93-7.42,72.11-13.63,108.18-20.37Z" style="fill: #000; stroke-width: 0px;"/>
  <path d="M999.78,258.59c.21.28.47.49.79.64,2.54,2.98,5.94,5.08,8.37,8.17l-.04-.04c2.73,3.1,5.62,6.02,9.3,8.02.72.66,1.44,1.32,2.16,1.98,1.08,4.53,6.01,5.65,8.15,9.24l-.02-.02c2.69,3.11,5.62,5.95,9.22,8.02,2.95,4.59,7.43,7.62,11.42,11.14,1.38,4.08,4.97,5.89,8.23,8.05.71.67,1.43,1.34,2.14,2,.64,4.19,5.3,4.95,7.01,8.22l-.02-.02c2.23,3.29,6.08,5,8.16,8.43,5.84,4.88,13.15,8.45,15.02,16.86,4.16,8.22,9.06,16.02,13.47,24.1l-.04-.05c2.97,5.65,5.81,11.38,9.62,16.55.06.35.11.7.13,1.05,3,6.16,6.61,11.98,10.16,17.83,1.08,2.03,2.17,4.06,3.25,6.09,2.25,4.63,4.76,9.11,7.31,13.58,7.07,20.05,14.13,40.1,21.2,60.15-1.42,1.93-.77,4.11-.66,6.19.51,9.21,1.26,18.41,1.71,27.62-.48,2.31-.17,4.62-.03,6.93,1.31,21.38,3.02,42.73,3.79,64.14.81,15.49,1.59,30.98,3.17,46.41.14,1.33.02,2.44-.52,3.58.89,19.6,2.75,39.13,3.49,58.73-.09,9.29.79,18.55,1.58,27.78.49,5.7-.23,10.88-2.74,16.04-2.25,4.64-4.2,9.45-6.17,14.23-.93,2.1-1.87,4.19-2.8,6.29-3.31,7.68-7.51,14.99-9.3,23.28-1.58,2.9-3.16,5.79-4.75,8.69-3.55,7.04-6.06,14.53-9.46,21.63-1.52,4.43-2.61,9.04-5.56,12.85-2.97,5.48-4.75,11.49-7.59,17.02-2.36,4.98-2.73,10.81-6.5,15.19-3.64,6.92-5.97,14.42-9.45,21.41l-5.58,12.04c-4.26.75-5.24,5.21-8.27,7.35-7.05,7.52-14.1,15.04-21.14,22.55-4.45,1.16-5.58,6.04-9.18,8.17l.03-.02c-3.14,2.4-5.32,5.73-8.13,8.44-2.32,5.59-8.2,7.87-11.72,12.61-2.88,3.88-7.18,7.14-10.45,11.08-3.99.87-4.98,5.21-8.15,7.03l.03-.02c-3.11,2.69-5.95,5.62-8.03,9.22-10.03,9.96-20.06,19.92-30.1,29.88-3.46,2.47-6.13,5.65-8.33,9.26-9.6,9.54-19.32,18.98-28.78,28.66-10.76,11.01-21.29,22.25-31.91,33.39-4.11.9-5.16,5.2-8.17,7.33-2.84,5.09-7.89,8.09-11.66,12.3-3.21,2.06-5.65,4.82-7.41,8.19-3.31,3.02-6.61,6.05-9.92,9.07-3.07,2.13-5.45,4.88-7.33,8.08-17.59,5.21-34.18,14.18-53.16,14.11-6.93-1.46-13.9-.14-20.81-.01-11.78.22-23.57.51-35.35.82-21.4.57-42.81,1.29-64.21,1.66-.9.03-1.78-.33-2.65-.25-16.49,1.55-33.1.32-49.58,2.04-.56.06-1,.32-1.46.59-5.79.1-11.56,1.76-17.38.3,2.18-1.57,4.79-.67,7.15-1.21-.18.25-.4.04-.6.06-1.95.13-3.91.24-5.86.39-11.7.87-23.47-.29-35.15,1.21-1.74.22-3.58-.21-5.19.83-.44.01-.88.02-1.32.03-1-.79-2.11-1.39-3.41-1.28-8.09.74-16.27.47-24.3,2-.45.03-.9.05-1.35.08-5.61-1.57-11.3-.25-16.95-.35-17.28-.31-34.54,1.17-51.82,1.15-2.02,0-3.82-.56-5.58-1.45-1.44-.5-2.87-1.01-4.31-1.51-4.82-1.84-9.48-4.12-14.41-5.69-4.34-1.86-8.67-3.71-13.01-5.57-8.82-3-17.17-7.15-25.86-10.47-3.53.56-6.07-1.49-8.72-3.28-6.3-2.6-12.51-5.39-18.91-7.73-2.87-1.2-5.73-2.4-8.6-3.6-8.06-2.29-15.2-6.3-21.69-11.53-11.14-11.36-22.12-22.88-33.45-34.05-10.5-10.34-21.53-20.16-32.05-30.48-7.35-7.21-14.06-15.06-21.37-22.31-7.84-7.77-16.11-15.1-24.07-22.76-6.8-6.54-13.43-13.27-20.13-19.92-1.4-4.05-4.97-5.89-8.24-8.03-2.81-4.71-7.11-7.89-11.35-11.14-.69-4.14-5.3-4.94-7.02-8.19l.03.03c-2.37-2.75-4.85-5.37-8.17-7-.71-.67-1.42-1.33-2.13-2-.64-4.21-5.35-4.96-7.02-8.3-6.22-18.22-12.43-36.44-18.65-54.66-2.08-14.29-3.62-28.67-7.35-42.68-.32-1.09-.64-2.18-.96-3.27,2.13-2.91.06-5.85-.25-8.65-.35-3.14-.57-6.49-2.21-9.41-.38-1.44-.77-2.88-1.15-4.32.94-8.14-1.42-15.97-2.27-23.94-.28-2.61-.64-5.24-.88-7.88-1.34-12.28-2.35-24.59-4.52-36.76-.35-6.88-1.28-13.69-2.41-20.47-1.35-18.22-3.96-36.3-6.24-54.43-1.93-15.43-3.11-30.94-5.49-46.31-1.73-18.47-4.05-36.88-6.47-55.28-1.52-9.58-1.7-19.32-3.51-28.86-.32-6.48-1.44-12.86-2.33-19.26-1.04-12.69-2.47-25.35-4.13-37.99-.33.15-.29.63-.66.75-1.81-2.68-1-5.77-1.37-8.67,1.89-2.88.01-5.73-.04-8.59-.04-2.24-.83-4.5.07-6.73.95-1.7,1.89-3.4,2.84-5.1,2.53-3.72,4.34-7.88,7.07-11.47l8.51-14.38c2.45-3.68,4.42-7.65,6.84-11.35h0c2.28-3.18,4.01-6.69,5.9-10.1,6.78-11.12,13.56-22.24,20.33-33.36,2.3-3.95,4.78-7.79,6.85-11.87,8.68-19.17,24.4-31.96,40.49-44.3,14.27-10.95,28.96-21.36,43.38-32.13,5.41-4.04,10.58-8.41,15.86-12.63,4.22-2.67,7.97-5.96,12.04-8.83,4.21-3.44,8.7-6.52,12.83-10.07,12.22-9.4,24.43-18.8,36.65-28.2,3.41-2.05,6.51-4.51,9.51-7.1,14.72-11.63,29.24-23.52,44.23-34.8,13.58-10.22,30.55-12.56,46.01-18.36,12.12-4.54,24.36-8.92,37.2-11.17,8.12-1.56,16.41-2.3,24.32-4.92,1.42-.41,2.84-.81,4.25-1.22,5.28,1.13,10.03-1.02,14.92-2.35,9.64-1.92,19.76-1.44,28.91-5.82,5.89,1.14,11.27-1.57,16.92-2.22,6.05-1.47,12.11-2.93,18.16-4.4,5.22,1.07,9.95-1.08,14.82-2.3,1.08-.35,2.15-.7,3.23-1.05,5.57,1.38,10.66-1.45,15.99-2.1,1.97-.24,4.56.01,6.35-1.66,1.43-.4,2.85-.8,4.28-1.21,5.27,1.13,10.02-1.04,14.9-2.34,9.66-.47,18.99-4.65,28.88-2.66,4.96-.3,9.47,2.18,14.37,2.28,7.58,1.66,15.15,3.32,22.73,4.98,5.23,1.32,10.51,2.39,15.82,3.33,9.99,2.2,19.97,4.4,29.96,6.6,6.66,1.41,13.33,2.79,20,4.16l-.09-.04c5.15,1.38,10.4,2.32,15.63,3.35,30.87,6.55,61.74,13.1,92.61,19.65,6.19,2.24,13.08,2.07,18.94,5.45,5.92,2.83,8.86,8.78,13.52,12.92,2.27,2.91,4.86,5.45,8.17,7.16,1.1.99,2.2,1.98,3.31,2.97.78,3.94,4.29,5.19,7.08,7.14.71.95,1.43,1.91,2.14,2.86,2.06,3.43,5.84,5.18,8.14,8.37l-.02-.03c6.22,5.64,11.2,12.62,18.48,17.12.73.66,1.45,1.32,2.18,1.98,1.23,4.18,5,5.84,8.12,8.14,3.44,3.67,6.89,7.35,10.33,11.02,5.57,6.12,11.87,11.52,17.41,17.68Z" style="fill: #0e0e0e; stroke-width: 0px;"/>
  <path d="M695.1,1146.86c11.93-.1,23.86.03,35.78-.33,25.33-.77,50.65-1.8,75.97-2.71,3.02-.11,6.02-.03,8.76,1.51-39.89,1.14-79.77,2.28-119.66,3.38-1.02.03-2.05-.41-3.07-.63.44-.95,1.64-.5,2.21-1.21Z" style="fill: #354141; stroke-width: 0px;"/>
  <path d="M1158.41,760.24c-.01-.71-.32-1.63,0-2.11,10.82-15.71,7.5-33.17,6.35-50.37-.12-1.73.35-3.51.55-5.26.26-.49.62-.57,1.07-.25.74,11.02,2.35,22.08,1.96,33.06-.32,9.08-5.37,17.1-9.93,24.93Z" style="fill: #2d2d2d; stroke-width: 0px;"/>
  <path d="M1161.67,643.38c-.98-14.81-1.99-29.62-2.91-44.43-.13-2.05-.95-4.24.59-6.17.49.18.84.5,1.08.95.82,16.51,3.31,32.94,2.3,49.53-.29.55-.64.62-1.06.12Z" style="fill: #292929; stroke-width: 0px;"/>
  <path d="M479.79,1151.92c22.84,1.55,45.63-.51,68.44-.96,1.99-.04,4.77-1.87,5.91,1.61-23.22.47-46.45.95-69.67,1.39-1.81.03-3.58-.32-4.67-2.05Z" style="fill: #354040; stroke-width: 0px;"/>
  <path d="M130.96,560.42c2.27,18.18,4.53,36.35,6.8,54.53-.67.69-1.39.71-2.15.14-1.88-18.2-3.75-36.4-5.63-54.61.29-.54.62-.58.98-.06Z" style="fill: #323232; stroke-width: 0px;"/>
  <path d="M143.05,663.1c2.2,17.46,4.4,34.92,6.61,52.38-.66.68-1.36.72-2.1.14-1.84-17.49-3.68-34.97-5.52-52.46.3-.55.64-.57,1.01-.06Z" style="fill: #313131; stroke-width: 0px;"/>
  <path d="M1160.42,593.73c-.36-.32-.72-.63-1.08-.95-1.47-23.22-2.93-46.44-4.4-69.66.95-.35,1.46-.18,1.13.97,1.45,23.21,2.9,46.43,4.35,69.64Z" style="fill: #414242; stroke-width: 0px;"/>
  <path d="M143.05,663.1c-.34.02-.67.04-1.01.06-1.67-13.96-3.31-27.93-5.03-41.88-.26-2.09-.92-4.13-1.39-6.2l2.15-.14c1.76,16.05,3.53,32.11,5.29,48.16Z" style="fill: #323232; stroke-width: 0px;"/>
  <path d="M1156.07,524.09c-.38-.32-.76-.65-1.13-.97-.67-9.92-1.37-19.83-1.97-29.75-.11-1.78-1.07-4.07,1.82-4.8.22,11.85,2.71,23.61,1.29,35.52Z" style="fill: #2a2a2a; stroke-width: 0px;"/>
  <path d="M163.34,831.05c3.94,4.38,3.17,10.14,3.89,15.23,1.28,9.12,4.52,18.04,3.46,27.45-2.45-14.23-4.9-28.45-7.35-42.68Z" style="fill: #303030; stroke-width: 0px;"/>
  <path d="M1161.67,643.38c.35-.06.7-.1,1.06-.12,1.22,19.66,2.44,39.32,3.66,58.98-.36.08-.71.17-1.07.25-1.22-19.7-2.43-39.41-3.65-59.12Z" style="fill: #424242; stroke-width: 0px;"/>
  <path d="M119.83,474.98c.1-1.75.2-3.49.3-5.24.35,1.76.81,3.5,1.03,5.27,1.48,12.05,2.92,24.11,4.37,36.17-.6.68-1.24.72-1.92.12-1.26-12.11-2.52-24.22-3.78-36.33Z" style="fill: #363737; stroke-width: 0px;"/>
  <path d="M695.1,1146.86c-.74.4-1.47.81-2.21,1.21-17.11.7-34.23,1.4-51.34,2.1,7.66-2.93,15.83-2.42,23.64-2.28,10.02.17,19.93-.94,29.9-1.03Z" style="fill: #364141; stroke-width: 0px;"/>
  <path d="M584.51,1151.74c7.83-2.92,16.09-1.86,24.15-2.48,8.65-.67,17.37-.54,26.05-.71.69-.01,1.38.35,2.08.54-.66.18-1.31.47-1.99.53-3.54.31-7.09.57-10.64.85-13.22.42-26.44.85-39.66,1.27Z" style="fill: #364141; stroke-width: 0px;"/>
  <path d="M152.14,736.88c1.5,12.48,3,24.95,4.5,37.43-.61.67-1.26.72-1.95.13-.95-12.55-2.13-25.07-4.69-37.42.67-.68,1.39-.72,2.14-.14Z" style="fill: #323232; stroke-width: 0px;"/>
  <path d="M154.69,774.44c.65-.04,1.3-.08,1.95-.13,1.32,9.95,2.63,19.9,3.98,29.84.25,1.84-.76,1.57-1.87,1.25-1.35-10.32-2.71-20.65-4.06-30.97Z" style="fill: #333; stroke-width: 0px;"/>
  <path d="M130.96,560.42l-.49.03s-.49.03-.49.03c-1.35-9.61-2.7-19.22-4.05-28.83.65-.68,1.33-.72,2.06-.13.99,9.64,1.98,19.27,2.97,28.91Z" style="fill: #343535; stroke-width: 0px;"/>
  <path d="M1103.14,373.38c-5.64-7.39-10.22-15.37-13.47-24.1,5.28,7.59,10.09,15.45,13.47,24.1Z" style="fill: #353636; stroke-width: 0px;"/>
  <path d="M152.14,736.88c-.71.05-1.43.09-2.14.14-.81-7.13-1.63-14.26-2.44-21.39.7-.05,1.4-.09,2.1-.14.83,7.13,1.66,14.26,2.49,21.4Z" style="fill: #363636; stroke-width: 0px;"/>
  <path d="M961.74,219.77c-8.07-3.64-13.13-10.54-18.48-17.12,6.16,5.71,12.32,11.41,18.48,17.12Z" style="fill: #373a3a; stroke-width: 0px;"/>
  <path d="M422.21,1128.68c9.08,2.35,17.54,6.23,25.85,10.47-9.23-1.98-17.67-5.91-25.85-10.47Z" style="fill: #363939; stroke-width: 0px;"/>
  <path d="M1146.3,789.8c.43-8.82,5.11-15.95,9.3-23.27-3.1,7.76-6.2,15.52-9.3,23.27Z" style="fill: #343535; stroke-width: 0px;"/>
  <path d="M127.99,531.51l-2.06.13c-.77-6.78-1.55-13.55-2.32-20.33.64-.04,1.28-.08,1.92-.12.82,6.77,1.64,13.55,2.46,20.32Z" style="fill: #343535; stroke-width: 0px;"/>
  <path d="M364.3,1102.54c7.23,3.84,14.46,7.69,21.69,11.53-8.54-1.37-15.88-5.01-21.69-11.53Z" style="fill: #373939; stroke-width: 0px;"/>
  <path d="M999.78,258.59c-6.49-5.21-12.67-10.74-17.41-17.67,6.43,5.27,12.83,10.58,17.41,17.67Z" style="fill: #353838; stroke-width: 0px;"/>
  <path d="M555.49,1152.49c4.02-2.33,25.19-2.88,27.71-.73-9.28-1.3-18.47.79-27.71.73Z" style="fill: #364141; stroke-width: 0px;"/>
  <path d="M1102.99,886.6c2.27-7.53,4.89-14.89,9.45-21.41-2.34,7.49-4.98,14.86-9.45,21.41Z" style="fill: #343535; stroke-width: 0px;"/>
  <path d="M1132.09,820.12c2.22-7.62,4.95-15.01,9.46-21.62-2.27,7.59-5.08,14.95-9.46,21.62Z" style="fill: #343535; stroke-width: 0px;"/>
  <path d="M159.91,809.72c.04-.17.07-.35.13-.52.06-.17.15-.32.22-.48,2.56,6.14,3.3,12.63,3.64,19.2-.51-.05-1.02-.09-1.52-.14-.82-6.02-1.65-12.04-2.47-18.06Z" style="fill: #333; stroke-width: 0px;"/>
  <path d="M499.35,140.83c.17.03.45.01.51.11.16.31.24.66.36.99-8.4,1.27-16.79,2.55-25.18,3.82,8.11-1.64,16.22-3.28,24.32-4.92Z" style="fill: #354040; stroke-width: 0px;"/>
  <path d="M622.9,117.71c.17.03.38.02.51.11.23.17.42.4.62.61-7.84.87-15.25,5.11-23.47,3.04,7.45-1.25,14.89-2.51,22.34-3.76Z" style="fill: #333f3f; stroke-width: 0px;"/>
  <path d="M1112.73,389.88c-5.18-4.37-7.48-10.41-9.62-16.55,3.21,5.52,6.41,11.03,9.62,16.55Z" style="fill: #323333; stroke-width: 0px;"/>
  <path d="M1123.02,408.76c-4.65-5.23-8.12-11.12-10.16-17.83,4.21,5.47,7.52,11.46,10.16,17.83Z" style="fill: #353737; stroke-width: 0px;"/>
  <path d="M394.59,1117.67c6.81,1.35,13.08,4,18.91,7.73-6.71-1.59-13.02-4.14-18.91-7.73Z" style="fill: #383c3c; stroke-width: 0px;"/>
  <path d="M900.91,161.26c-6.31-1.82-12.63-3.63-18.94-5.45,6.49,1.22,13.41.92,18.94,5.45Z" style="fill: #353c3c; stroke-width: 0px;"/>
  <path d="M773.83,132.85c-6.9-.25-13.55-1.72-19.99-4.16,6.89.3,13.55,1.71,19.99,4.16Z" style="fill: #343b3b; stroke-width: 0px;"/>
  <path d="M1118.94,850c1.67-6.06,3.69-11.96,7.59-17.02-1.74,6.03-3.72,11.95-7.59,17.02Z" style="fill: #343535; stroke-width: 0px;"/>
  <path d="M118.49,450.98c.59,4,1.34,7.99,1.68,12.02.09,1.06,2.05,3.92-1.71,3.31.22-5.11-2.2-10.22.03-15.33Z" style="fill: #353636; stroke-width: 0px;"/>
  <path d="M1133.58,428.42c-3.98-3.7-5.86-8.52-7.31-13.58,3.05,4.2,6.26,8.31,7.31,13.58Z" style="fill: #333434; stroke-width: 0px;"/>
  <path d="M301.42,245.39c-3.11,4.69-8.28,6.95-12.34,10.53-.66-.35-.73-.8-.21-1.34,4.18-3.06,8.36-6.13,12.54-9.19Z" style="fill: #2f3232; stroke-width: 0px;"/>
  <path d="M288.88,254.58c.07.45.14.89.21,1.34-4.25,2.69-7.42,6.97-12.53,8.38,4.11-3.24,8.21-6.47,12.32-9.71Z" style="fill: #2e3333; stroke-width: 0px;"/>
  <path d="M461.08,1144.71c5.36.48,10.01,2.76,14.41,5.69-5.24-.79-9.9-3.04-14.41-5.69Z" style="fill: #363939; stroke-width: 0px;"/>
  <path d="M564.35,129.22c-5.52,1.68-10.92,4.2-16.92,2.22,5.64-.74,11.28-1.48,16.92-2.22Z" style="fill: #394141; stroke-width: 0px;"/>
  <path d="M685.32,113.77c-5.08,1.07-9.56-1.64-14.37-2.28,5.13-1.38,9.66.98,14.37,2.28Z" style="fill: #303636; stroke-width: 0px;"/>
  <path d="M789.36,136.16c-5.44-.05-10.71-.87-15.63-3.35,5.4.24,10.62,1.27,15.63,3.35Z" style="fill: #353d3d; stroke-width: 0px;"/>
  <path d="M723.87,122.08c-5.51.01-10.82-.92-15.82-3.33,5.46.22,10.74,1.29,15.82,3.33Z" style="fill: #333c3c; stroke-width: 0px;"/>
  <path d="M597.33,122.52c.17.05.39.05.5.16.2.2.34.47.51.71-5.32.05-10.28,3.95-15.83,1.44,4.94-.77,9.88-1.53,14.82-2.3Z" style="fill: #354343; stroke-width: 0px;"/>
  <path d="M1018.2,275.38c-4.77-.74-7.08-4.32-9.3-8.02,3.1,2.67,6.2,5.35,9.3,8.02Z" style="fill: #393c3c; stroke-width: 0px;"/>
  <path d="M1028.5,286.6c-3.05-2.79-8.07-3.84-8.15-9.24,2.2,3.54,6.76,4.99,8.15,9.24Z" style="fill: #343737; stroke-width: 0px;"/>
  <path d="M1037.7,294.6c-4.56-.97-7.1-4.26-9.22-8.02,3.07,2.67,6.15,5.35,9.22,8.02Z" style="fill: #333535; stroke-width: 0px;"/>
  <path d="M176.83,353.35c-1.08,4.65-3.54,8.5-6.85,11.87,1.15-4.61,3.78-8.37,6.85-11.87Z" style="fill: #323434; stroke-width: 0px;"/>
  <path d="M1057.36,313.79c-4.32-1.07-7.66-3.15-8.23-8.05,2.74,2.68,5.49,5.36,8.23,8.05Z" style="fill: #353a3a; stroke-width: 0px;"/>
  <path d="M972.04,229.89c-4.13-1.29-7.72-3.12-8.12-8.14,2.71,2.71,5.42,5.42,8.12,8.14Z" style="fill: #323535; stroke-width: 0px;"/>
  <path d="M143.75,408.68c-1.33,4.36-3.46,8.23-6.84,11.35,1.36-4.34,3.38-8.27,6.84-11.35Z" style="fill: #323333; stroke-width: 0px;"/>
  <path d="M224.99,964.99c4.32,1.06,7.64,3.15,8.24,8.03-2.75-2.68-5.49-5.35-8.24-8.03Z" style="fill: #373737; stroke-width: 0px;"/>
  <path d="M518.52,137.25c-4.73,2.33-9.52,4.27-14.92,2.35,4.97-.78,9.95-1.57,14.92-2.35Z" style="fill: #384242; stroke-width: 0px;"/>
  <path d="M1058.82,936.72c2.7-3.12,3.94-7.89,9.18-8.17-3.41,2.33-4.98,6.72-9.18,8.17Z" style="fill: #373a3a; stroke-width: 0px;"/>
  <path d="M642.08,114.16c-4.73,2.31-9.51,4.25-14.9,2.34,4.97-.78,9.93-1.56,14.9-2.34Z" style="fill: #374242; stroke-width: 0px;"/>
  <path d="M128.4,434.41c-1.68,4.24-3.57,8.35-7.07,11.47,1.45-4.38,3.36-8.48,7.07-11.47Z" style="fill: #323434; stroke-width: 0px;"/>
  <path d="M973.96,1024.19c1.15-4.55,4.1-7.47,8.33-9.26-2.77,3.09-5.55,6.17-8.33,9.26Z" style="fill: #343636; stroke-width: 0px;"/>
  <path d="M1012.39,985.05c1.01-4.53,4.19-7.16,8.03-9.22-2.68,3.07-5.35,6.14-8.03,9.22Z" style="fill: #353838; stroke-width: 0px;"/>
  <path d="M1020.39,975.86c2.41-2.7,3.24-7.23,8.15-7.03-3.06,1.95-4.35,5.93-8.15,7.03Z" style="fill: #393a3a; stroke-width: 0px;"/>
  <path d="M1050.71,945.13c1.92-3.58,4.19-6.82,8.13-8.44-2.04,3.46-4.61,6.41-8.13,8.44Z" style="fill: #383b3b; stroke-width: 0px;"/>
  <path d="M1089.14,906c2.2-3.08,3.3-7.39,8.27-7.35-2.76,2.45-5.51,4.9-8.27,7.35Z" style="fill: #383b3b; stroke-width: 0px;"/>
  <path d="M905.1,1093.57c2.11-3.12,3.34-7.23,8.17-7.33-2.72,2.44-5.45,4.88-8.17,7.33Z" style="fill: #383737; stroke-width: 0px;"/>
  <path d="M206.63,945.66c2.69,2.43,7.34,3.19,7.02,8.19-1.86-3.14-5.93-4.39-7.02-8.19Z" style="fill: #3a3b3b; stroke-width: 0px;"/>
  <path d="M886.03,1114.06c.6-4.42,3.58-6.69,7.4-8.19-2.46,2.73-4.93,5.46-7.4,8.19Z" style="fill: #2e2f2f; stroke-width: 0px;"/>
  <path d="M198.48,938.69c4.41.37,6.35,3.62,8.17,7-2.72-2.33-5.45-4.67-8.17-7Z" style="fill: #3a3c3c; stroke-width: 0px;"/>
  <path d="M868.78,1131.22c.72-4.26,3.62-6.53,7.33-8.08-2.44,2.69-4.88,5.39-7.33,8.08Z" style="fill: #363939; stroke-width: 0px;"/>
  <path d="M189.33,928.39c2.63,2.52,7.33,3.29,7.02,8.3-1.86-3.17-6.02-4.4-7.02-8.3Z" style="fill: #393b3b; stroke-width: 0px;"/>
  <path d="M1008.94,267.4c-3.38-2.12-6.56-4.45-8.37-8.17,3.55,1.94,6.66,4.34,8.37,8.17Z" style="fill: #393c3c; stroke-width: 0px;"/>
  <path d="M1066.51,324.01c-2.75-2.39-7.31-3.23-7.01-8.22,1.87,3.14,5.92,4.41,7.01,8.22Z" style="fill: #383c3c; stroke-width: 0px;"/>
  <path d="M1074.65,332.42c-2.99-2.55-6.72-4.38-8.16-8.43,3.33,2.22,6.81,4.3,8.16,8.43Z" style="fill: #393b3b; stroke-width: 0px;"/>
  <path d="M943.28,202.68c-3.31-2.21-6.83-4.22-8.14-8.37,3.05,2.46,6.58,4.46,8.14,8.37Z" style="fill: #383c3c; stroke-width: 0px;"/>
  <path d="M933,191.45c-4.02-.73-6.83-2.66-7.08-7.13,2.36,2.38,4.72,4.76,7.08,7.13Z" style="fill: #3a3c3c; stroke-width: 0px;"/>
  <path d="M149.65,398.58c-.81,4.04-2.7,7.46-5.9,10.11,1.09-3.88,3.01-7.28,5.9-10.11Z" style="fill: #313232; stroke-width: 0px;"/>
  <path d="M922.61,181.35c-4.39-.49-6.48-3.6-8.17-7.16,2.72,2.39,5.45,4.77,8.17,7.16Z" style="fill: #333636; stroke-width: 0px;"/>
  <path d="M347.58,210.08c-2.34,3.47-5.41,5.98-9.51,7.1,2.71-2.98,5.71-5.58,9.51-7.1Z" style="fill: #2f3232; stroke-width: 0px;"/>
  <path d="M609.97,950.43c-50.62,38.07-101.29,76.07-151.76,114.32-4.06,3.08-6.09,2.17-9.14-.82-60.03-58.84-120.1-117.64-180.21-176.4-28.88-28.23-57.83-56.39-86.81-84.53-2.68-2.6-4.43-4.18-.56-7.78,66.04-61.51,131.92-123.19,197.87-184.81,1.02-.95,2.38-1.53,3.58-2.28,1.81-.45,3.18.52,4.34,1.61,12.39,11.56,28.05,17.84,42.47,26.06,26.61,15.17,53.49,29.88,80.33,44.65,4.39,2.41,6.94,5.72,8.58,10.4,12.31,35.16,25.25,70.09,37.62,105.23,8.8,25,18.03,49.85,26.89,74.83,8.09,22.78,15.89,45.67,24.56,68.24,1.37,3.58,3.62,7.11,2.23,11.29Z" style="fill: #b3b3b3; stroke-width: 0px;"/>
  <path d="M373,584.59c1.58,6.61-1.23,10.89-6.15,15.46-63.53,59.03-126.81,118.33-190.18,177.54-1.27,1.18-2.77,2.12-4.16,3.17-.41-1.65-1.01-3.28-1.21-4.96-6.86-58.03-13.67-116.06-20.5-174.09-5.57-47.31-11.12-94.63-16.76-141.94-.4-3.38.26-6.07,2.06-9.05,20.9-34.52,41.63-69.13,62.32-103.78,1.53-2.56,3.33-3.72,6.3-4.11,41.35-5.33,82.68-10.78,124.01-16.22,3.71-.49,7.41-1.11,11.11-1.67,2.62,2.05,2.33,5.1,2.56,7.89,1.87,22.67,5.69,45.1,8.4,67.66,1.68,14.04,3.59,28.05,5.35,42.08,2.31,18.47,4.61,36.94,7.36,55.35,1.77,11.86,3.22,23.77,4.67,35.67,1.84,15.1,4.35,30.13,5.49,45.32.14,1.94.81,3.92-.69,5.65Z" style="fill: #b3b3b3; stroke-width: 0px;"/>
  <path d="M919.97,437.11c29.93-14.69,59.88-29.36,89.79-44.09,21.3-10.49,42.58-21,63.79-31.68,3.25-1.64,4.68-1.43,6.56,1.99,18.24,33.15,36.68,66.19,55.16,99.21,1.47,2.62,2.02,5.25,2.18,8.15,4.78,86.17,9.59,172.33,14.46,258.49.15,2.63-.47,4.27-2.81,5.7-32.47,19.92-64.89,39.93-97.32,59.92-2.69.29-2.56-2.02-3.12-3.52-5.82-15.6-11.35-31.31-17.01-46.97-11.69-32.34-23.44-64.65-35.06-97.01-13.25-36.92-26.62-73.8-39.94-110.69-10.58-29.31-21.18-58.62-31.72-87.95-1.43-3.99-5.13-6.95-4.96-11.56Z" style="fill: #a7a7a7; stroke-width: 0px;"/>
  <path d="M902.68,973.8c-17.46,48.18-35.11,96.3-52.18,144.62-2.63,7.44-5.67,10.26-13.97,10.44-88.58,1.94-177.16,4.38-265.73,6.74-24.7.66-49.4,1.36-74.09,2.31-5.08.2-8.01-.9-10.24-6.03-6.62-15.18-13.78-30.14-21.14-44.98-2.35-4.75-1.02-6.87,2.9-9.8,50.54-37.92,100.93-76.04,151.36-114.12,2.21-.71,4.08.37,5.3,1.8,5.13,5.99,11.99,6.53,19.07,6.4,23.97-.43,47.94-.06,71.9.03,23.61.09,47.22.1,70.83.25,18.42.12,36.85.18,55.27.07,18.24-.11,36.49-.17,54.72.51,2.12.08,4.35,0,6,1.76Z" style="fill: #a8a8a8; stroke-width: 0px;"/>
  <path d="M643.98,159.59c8.21-10.56,16.42-21.12,24.61-31.69,1.25-1.61,2.74-1.12,4.37-.77,72.12,15.49,144.25,30.96,216.4,46.36,5.28,1.13,7.79,5.53,11.12,8.8,54.39,53.33,108.64,106.81,163,160.17,3.34,3.28,4.09,4.67-.97,7.15-48.51,23.78-96.88,47.85-145.32,71.78-2.12,1.05-4.12,3.09-6.9,1.79-2.13.19-3.13-1.52-4.37-2.72-16.7-16.2-33.14-32.65-49.53-49.17-13.23-13.34-26.73-26.41-40.03-39.68-15.46-15.42-31.19-30.56-46.47-46.16-13.27-13.55-26.9-26.76-40.34-40.13-15.6-15.52-31.34-30.91-46.81-46.57-11.19-11.32-22.35-22.7-34.03-33.53-1.8-1.67-4.17-2.91-4.72-5.64Z" style="fill: #acacac; stroke-width: 0px;"/>
  <path d="M643.98,159.59c39.22,35.66,75.6,74.21,113.39,111.33,50.43,49.54,100.34,99.6,150.47,149.45.88.88,1.63,1.88,2.44,2.82,4.92,3.46,2.39,12.11,9.69,13.91,6.34,5.49,7.5,13.68,10.14,20.85,14.71,40.06,28.81,80.35,43.24,120.51,15.21,42.34,30.52,84.65,45.85,126.94,10.81,29.82,21.72,59.6,32.59,89.4,2.09,5.52,3.28,11.22,3.27,17.14,1.94,1.54,1.79,3.8,1.96,5.91.35,4.28.23,8.64.94,12.86,1.18,7.05-1.41,12.54-5.91,17.62-7.84,8.85-15.52,17.85-23.44,26.63-26.86,29.82-52.18,60.98-78.76,91.04-4.26,4.81-8.76,7.74-15.21,7.31-4.54-.3-9.22,1.98-13.63-.72-6.11.4-12.22.8-18.32,1.2-43.49-.17-86.99-.37-130.48-.51-46.16-.15-92.33-.12-138.49-.48-6.34-.05-8.88-7.27-14.13-9.82-3.32-4.1-8.74-6.59-9.62-12.56-14.85-41.49-29.68-83-44.57-124.48-16.51-46.01-33.12-91.98-49.57-138.02-1.94-5.43-7.13-6.17-11.08-8.38-35.84-20.1-71.9-39.8-107.71-59.95-5.2-2.93-9.42-7.61-14.1-11.47-10.26-4.91-7.15-15.47-9.94-23.53-4.27-32.08-8.57-64.15-12.79-96.24-6.05-46.1-12.09-92.2-18.01-138.31-1.07-8.32-1.58-16.72-2.35-25.08.02-5.44.05-10.88.07-16.32-1.24-2.75.22-4.99,1.73-6.9,5.78-7.29,11.57-14.46,20.15-18.96,32.82-17.21,64.99-35.63,97.62-53.2,22.23-11.96,44.21-24.38,66.41-36.39,22.52-12.18,44.84-24.74,67.33-36.99,3.19-1.74,6.52-2.92,10.18-3.16,6.08-.41,12.15-.84,18.23-1.17,1.93-.1,3.97-.44,5.61,1.11,6.85-.99,12.63.76,16.79,6.61Z" style="fill: #000; stroke-width: 0px;"/>
  <path d="M627.19,152.99c-23.52-2.81-42.04,9.37-61.27,19.97-68.49,37.76-137.2,75.12-205.67,112.92-9.16,5.06-15.39,13.53-20.32,22.76-9.87,1.49-19.71,3.13-29.6,4.43-26.78,3.53-53.58,6.91-80.37,10.33-1.18.15-2.4,0-3.61,0,.74-.84,1.37-1.83,2.24-2.49,58.63-44.96,118.15-88.81,175.47-135.39,22.06-17.93,47.2-19.49,72.09-24.45,54.78-10.92,109.78-20.7,164.69-30.93,1.53-.29,3.11-.34,4.67-.5-.76,1.31-1.36,2.75-2.3,3.91-5.29,6.52-10.66,12.97-16.01,19.44Z" style="fill: #aeaeae; stroke-width: 0px;"/>
  <path d="M178.3,825.22c.06-.25.32-1.35.58-2.45.96.71,2.01,1.31,2.85,2.13,33.41,32.6,66.79,65.22,100.18,97.83,54.11,52.85,108.29,105.64,162.26,158.64,8.05,7.91,9.96,19.53,15.37,29.1,3.05,5.4,5.31,11.26,7.87,16.93.42.92.57,1.97.84,2.96-.99-.09-2.08.04-2.96-.31-27.83-11.22-56.02-21.65-83.23-34.22-8.89-4.11-15.33-13.67-22.69-20.94-53.21-52.54-106.29-105.2-159.65-157.58-5.56-5.46-8.46-11.12-9.57-18.82-3.48-24.18-7.75-48.24-11.86-73.27Z" style="fill: #aaa; stroke-width: 0px;"/>
  <path d="M921.01,972.6c15.64,1.83,26.14-5.04,36.15-17.11,30.74-37.05,62.69-73.09,94.37-109.34,3.97-4.54,5.77-8.92,4.9-14.94-.93-6.36-.96-12.84-1.38-19.27,28.14-17.41,56.27-34.83,84.42-52.22.66-.41,1.52-.49,2.28-.73-.2,1.02-.23,2.11-.63,3.04-11.16,25.53-22.38,51.05-33.56,76.57-6.02,13.75-12,27.51-17.99,41.28-1.36,3.12-2.72,6.15-5.2,8.67-69.07,70.22-138.1,140.47-207.16,210.7-1,1.02-2.3,1.75-3.46,2.62.38-1.34.67-2.71,1.15-4.01,14.7-40.3,29.4-80.6,44.13-120.89.55-1.5,1.31-2.91,1.98-4.37Z" style="fill: #949494; stroke-width: 0px;"/>
  <path d="M915.79,952.92c-47.88-.17-95.66-.37-143.45-.49-29.89-.08-59.77-.05-89.66-.09-14.85-.02-29.78.76-44.52-.52-6.94-.6-12.9-6.71-15.38-13.41-11.94-32.31-23.23-64.85-34.83-97.29-17.06-47.72-34.1-95.46-51.37-143.1-3.34-9.22-7.29-18.22-9.22-27.89-.47-2.34-2.58-2.86-4.18-3.76-40.31-22.4-80.7-44.64-120.96-67.13-9.8-5.47-15.85-12.78-17.38-25.36-9.71-79.66-20.46-159.2-30.74-238.79-1.01-7.81-2.04-15.76-1.6-23.57.42-7.46,6.48-12.57,12.33-15.8,79.7-43.99,159.59-87.65,239.45-131.34,8.21-4.49,26.18-2.67,32.77,3.81,40.74,40.1,81.36,80.33,121.97,120.56,26.73,26.49,53.37,53.06,80.05,79.6,19.06,18.96,39.25,36.93,56.76,57.22,11.47,13.3,18.42,30.02,24.3,47.15,18.23,53.16,37.7,105.89,56.77,158.75,11.93,33.06,24,66.08,36,99.11,8.23,22.64,16.39,45.29,24.7,67.9,3.24,8.81,2.2,18.05,3.24,27.07.26,2.24-1.47,3.55-2.73,5.01-33.91,39.17-67.85,78.3-101.73,117.49-5.86,6.77-13.97,2.15-20.58,4.85Z" style="fill: #fff; stroke-width: 0px;"/>
  <path d="M889.07,460.25c6.87,18.75,13.81,37.47,20.61,56.24,18.47,51.02,36.87,102.07,55.32,153.1,11.77,32.56,23.59,65.11,35.38,97.67,5.53,15.28,10.98,30.59,16.64,45.82,1.07,2.88.78,4.84-1.27,7.19-30.91,35.53-61.73,71.13-92.53,106.76-1.77,2.05-3.62,2.97-6.43,2.95-42.43-.23-84.85-.38-127.28-.45-35.64-.06-71.27,0-106.91-.01-10.92,0-21.85-.28-32.76.03-4.65.13-5.54-2.64-6.72-5.96-11.45-32.34-22.88-64.68-34.48-96.97-18.95-52.8-38.02-105.57-57.03-158.35-.42-1.16-.63-2.4-.94-3.6,4.2-3.97,9.39-6.55,14.25-9.46,21.68-12.97,43.28-26.06,64.88-39.14,39.99-24.23,80.05-48.34,119.99-72.65,20.2-12.29,40.39-24.6,60.74-36.64,24.51-14.51,48.6-29.72,73.25-44.01,1.69-.98,3.22-2.31,5.29-2.51Z" style="fill: #6b6ac5; stroke-width: 0px;"/>
  <path d="M874.79,443.17c-33.49,20.35-66.95,40.75-100.48,61.04-76.43,46.26-152.91,92.43-229.29,138.77-4.4,2.67-7.6,3.29-12.48.54-40.22-22.62-80.65-44.85-121-67.22-2.02-1.12-3.58-2.31-3.95-5.13-10.6-81.99-21.34-163.96-32.03-245.94-.21-1.59-.18-3.21-.26-4.82,2.25,1.24,4.19,1.04,6.56-.29,41.25-23.16,82.96-45.48,124.37-68.34,35.45-19.58,71.14-38.71,106.49-58.47,7.82-4.37,8.79-4.23,15.23,2.11,28.85,28.39,57.27,57.24,86.16,85.59,28.25,27.73,56.03,55.92,84.3,83.63,24.81,24.33,49.33,48.96,73.77,73.65,1.32,1.33,3.27,2.43,2.61,4.87Z" style="fill: #6b6ac6; stroke-width: 0px;"/>
  <path d="M874.79,443.17c-21.1-21.05-42.21-42.09-63.29-63.17-24.1-24.1-48.13-48.29-72.27-72.35-15.93-15.88-32.05-31.58-48.03-47.42-22.31-22.12-44.65-44.21-66.75-66.54-3.51-3.55-6.14-1.66-8.99-.11-16.94,9.21-33.8,18.59-50.72,27.85-33.73,18.44-67.54,36.75-101.23,55.26-26.77,14.7-53.39,29.67-80.16,44.35-2.43,1.33-5.85,5.31-8.05-.63-.79-2.4.96-3.01,2.59-3.9,79.34-43.43,158.67-86.86,237.95-130.4,2.97-1.63,4.69-1.15,6.92,1.07,84.16,83.73,168.36,167.41,252.56,251.1,1.87,1.86,4.3,3.77-.54,4.88Z" style="fill: #5a59b3; stroke-width: 0px;"/>
  <path d="M889.07,460.25c-8.88,8.22-20,13.01-30.13,19.23-44.63,27.39-89.62,54.19-134.47,81.22-43.62,26.29-87.25,52.57-130.85,78.9-12.4,7.49-24.68,15.17-37.08,22.67-1.79,1.08-3.9,1.61-5.87,2.4-2.56-3.43-1.42-5.51,2.07-7.62,92.42-55.74,184.79-111.56,277.17-167.36,17.75-10.72,35.55-21.34,53.19-32.24,4.11-2.54,5.72-1.84,5.96,2.81Z" style="fill: #5a59b3; stroke-width: 0px;"/>
</svg>