<?xml version="1.0" encoding="UTF-8"?>
<!-- Generator: Adobe Illustrator 26.0.0, SVG Export Plug-In . SVG Version: 6.00 Build 0)  -->
<svg xmlns="http://www.w3.org/2000/svg" xmlns:xlink="http://www.w3.org/1999/xlink" version="1.1" id="Ebene_1" x="0px" y="0px" viewBox="0 0 283.5 92" style="enable-background:new 0 0 283.5 92;" xml:space="preserve">
<g>
	<path d="M10.4,56.3L0,57.7c1.4,9.1,4.4,15.4,15.5,15.4c9.2,0,14.4-5.7,14.5-14.1c0-8.5-5.5-12.9-10.3-17.4   c-3.6-3.1-6.8-5.8-6.8-9.6c0-2.1,1.2-3.2,2.8-3.2c2.3,0,3.3,1.4,4,6.6l10.2-1.8C28.4,23,23.6,19.1,15,19.1   c-5.8,0-13.5,3.6-13.6,13.9c0,8.8,5.2,14,9.9,18.3c3.7,3.4,7,5.5,7,9.2c0,2.4-1.2,3.5-3.1,3.5C13.2,63.9,11.3,61.7,10.4,56.3z"></path>
	<path d="M233.5,26.6l0-5.7l-11.9,0l-0.2,52.2l11.9,0l0.2-39.3c1.1-1.2,3-2.4,4.5-2.4c1.5,0,1.9,1.3,1.8,3.9l-0.1,37.8l11.9,0   l0.2-42c0-8.9-2.7-10.9-7.5-10.9C240.3,20.3,235.7,23.7,233.5,26.6z"></path>
	<path d="M43.5,92l0.9-25.7c2.4,4.1,6,6.7,10.8,6.7c8.3,0,13.9-7.5,14-26.7c0.1-19.3-5.4-26.9-13.7-26.9c-5.4,0-8.9,3.7-11,7l0-6.3   l-13.1-0.1l-1.1,71.8L43.5,92z M44.5,58.9l0.1-24.6c1.4-1.4,3.2-3.3,5.8-3.3c4,0,5.7,3.6,5.6,15.4c0,12.1-1.8,15.9-5.6,15.8   C48,62.2,46.3,60.8,44.5,58.9z"></path>
	<path d="M69.9,0l0.5,72.5l14.7,0.1l0.1-36.3c2.5-2.2,4-4.8,7.3-4.8c3.3,0,3.7,2.2,3.6,6.2l-0.1,35l14.6,0l0.2-39.6   c0-10.1-4.3-13.7-11.8-13.8c-7.4,0-11.2,4.7-13.8,8.4L84.7,0.1L69.9,0z"></path>
	<path d="M283.5,46.8c0-12.3-1.2-26.4-14.7-26.4c-10.4,0-15.6,8.9-15.7,26.8c-0.1,17.7,5.1,26.8,15.5,26.8c9.5,0,13.5-7.1,14.9-17.9   l-11,0c-0.4,6.1-1.2,8.2-3.8,8.2c-3.2,0-4.1-4.8-4.1-13.2l18.8,0.1L283.5,46.8z M264.7,43.5c0.2-9.9,1.3-13,4.1-13   c2.7,0,3.3,3.5,3.4,13L264.7,43.5z"></path>
	<path d="M183.6,19.6c-6.4,0-9.6,5.3-11.5,9.7h0l0-8.7l-15-0.1L157,72.8l15,0.1l0.1-32.5c1.9-3.8,5-7,9-7c0.6,0,2.3,0.2,2.7,0.3   l0.2-14L183.6,19.6z"></path>
	<path d="M112,46.6c-0.1,19.3,10.3,27.2,22.8,27.2c9.6,0,17.3-5.3,19.9-18.2l-11,0c-1.1,3.6-3.4,7.5-8.4,7.5c-5.5,0-8.6-4-9.1-12.9   l29.3,0.1l0-2.6c0.1-20.1-9.1-28.1-20.8-28.2C124,19.4,112.1,26.7,112,46.6z M142.4,42l-16.1-0.1c0.8-8.3,4.3-11.4,8.3-11.4   C139.3,30.5,142,34.2,142.4,42z"></path>
	<path d="M183.3,46.9c-0.1,18.5,7.6,26.9,19.1,26.9c8.8,0,15.3-6.2,16.9-17.9l-11.1,0c-1,4.4-2.4,8.1-5.5,8.1   c-4.6-0.1-6.7-4.8-6.8-12.5l24.1,0.1l0-4.2c0.1-16.1-5-27.2-17.7-27.3C191.4,20,183.3,28,183.3,46.9z M207.8,42.9l-11.9,0   c0.2-9.5,2.8-12.6,6.2-12.6C205.9,30.2,207.7,33.8,207.8,42.9z"></path>
</g>
</svg>
